<svg width="90" height="90" viewBox="0 0 90 90" fill="none" xmlns="http://www.w3.org/2000/svg">
<g clip-path="url(#clip0_236_1320)">
<path d="M13.1852 76.815C8.88728 72.6639 5.45908 67.6984 3.10067 62.2082C0.742267 56.718 -0.499114 50.8131 -0.551035 44.838C-0.602957 38.863 0.535619 32.9374 2.79826 27.4071C5.0609 21.8767 8.40229 16.8524 12.6275 12.6272C16.8526 8.40205 21.877 5.06066 27.4073 2.79802C32.9376 0.535375 38.8632 -0.603201 44.8383 -0.551279C50.8134 -0.499358 56.7183 0.742023 62.2084 3.10043C67.6986 5.45883 72.6641 8.88703 76.8152 13.185C85.0124 21.6721 89.5481 33.0392 89.4456 44.838C89.343 56.6369 84.6104 67.9235 76.2671 76.2668C67.9237 84.6102 56.6371 89.3428 44.8383 89.4453C33.0394 89.5479 21.6723 85.0121 13.1852 76.815ZM70.4702 70.47C77.2253 63.7149 81.0203 54.5531 81.0203 45C81.0203 35.4469 77.2253 26.2851 70.4702 19.53C63.7152 12.7749 54.5533 8.97997 45.0002 8.97997C35.4471 8.97997 26.2853 12.7749 19.5302 19.53C12.7752 26.2851 8.98022 35.4469 8.98022 45C8.98022 54.5531 12.7752 63.7149 19.5302 70.47C26.2853 77.2251 35.4471 81.02 45.0002 81.02C54.5533 81.02 63.7152 77.2251 70.4702 70.47ZM40.5002 22.5H49.5002V49.5H40.5002V22.5ZM40.5002 58.5H49.5002V67.5H40.5002V58.5Z" fill="#C56625"/>
</g>
<defs>
<clipPath id="clip0_236_1320">
<rect width="90" height="90" fill="white"/>
</clipPath>
</defs>
</svg>
