<svg width="365" height="112" viewBox="0 0 365 112" fill="none" xmlns="http://www.w3.org/2000/svg">
<path fill-rule="evenodd" clip-rule="evenodd" d="M53 14C53.7771 14 54.5225 14.3087 55.072 14.8582C55.6215 15.4078 55.9302 16.1531 55.9302 16.9302V20.8372C55.9302 21.6144 55.6215 22.3597 55.072 22.9092C54.5225 23.4587 53.7771 23.7674 53 23.7674C52.2229 23.7674 51.4775 23.4587 50.928 22.9092C50.3785 22.3597 50.0698 21.6144 50.0698 20.8372V16.9302C50.0698 16.1531 50.3785 15.4078 50.928 14.8582C51.4775 14.3087 52.2229 14 53 14ZM23.3031 26.3031C23.8525 25.7543 24.5973 25.4461 25.3738 25.4461C26.1503 25.4461 26.895 25.7543 27.4445 26.3031L28.9799 27.8346C29.5139 28.387 29.8096 29.127 29.8033 29.8954C29.797 30.6637 29.4892 31.3987 28.9462 31.9423C28.4031 32.4858 27.6683 32.7944 26.9 32.8014C26.1317 32.8084 25.3914 32.5134 24.8385 31.9799L23.3031 30.4445C22.7543 29.895 22.4461 29.1503 22.4461 28.3738C22.4461 27.5973 22.7543 26.8525 23.3031 26.3031ZM82.6969 26.3031C83.2457 26.8525 83.5539 27.5973 83.5539 28.3738C83.5539 29.1503 83.2457 29.895 82.6969 30.4445L81.1615 31.9799C80.606 32.4975 79.8713 32.7793 79.1122 32.7659C78.3531 32.7525 77.6288 32.445 77.0919 31.9081C76.555 31.3712 76.2475 30.6469 76.2341 29.8878C76.2207 29.1287 76.5025 28.394 77.0201 27.8385L78.5555 26.3031C79.1049 25.7543 79.8497 25.4461 80.6262 25.4461C81.4027 25.4461 82.1475 25.7543 82.6969 26.3031ZM53 35.4884C47.56 35.4884 42.3428 37.6494 38.4961 41.4961C34.6494 45.3428 32.4884 50.56 32.4884 56C32.4884 61.44 34.6494 66.6572 38.4961 70.5039C42.3428 74.3506 47.56 76.5116 53 76.5116C58.44 76.5116 63.6572 74.3506 67.5039 70.5039C71.3506 66.6572 73.5116 61.44 73.5116 56C73.5116 50.56 71.3506 45.3428 67.5039 41.4961C63.6572 37.6494 58.44 35.4884 53 35.4884ZM26.6279 56C26.6279 49.0057 29.4064 42.2978 34.3521 37.3521C39.2978 32.4064 46.0057 29.6279 53 29.6279C59.9943 29.6279 66.7022 32.4064 71.6479 37.3521C76.5936 42.2978 79.3721 49.0057 79.3721 56C79.3721 62.9943 76.5936 69.7022 71.6479 74.6479C66.7022 79.5936 59.9943 82.3721 53 82.3721C46.0057 82.3721 39.2978 79.5936 34.3521 74.6479C29.4064 69.7022 26.6279 62.9943 26.6279 56ZM11 56C11 55.2229 11.3087 54.4775 11.8582 53.928C12.4078 53.3785 13.1531 53.0698 13.9302 53.0698H17.8372C18.6144 53.0698 19.3597 53.3785 19.9092 53.928C20.4587 54.4775 20.7674 55.2229 20.7674 56C20.7674 56.7771 20.4587 57.5225 19.9092 58.072C19.3597 58.6215 18.6144 58.9302 17.8372 58.9302H13.9302C13.1531 58.9302 12.4078 58.6215 11.8582 58.072C11.3087 57.5225 11 56.7771 11 56ZM85.2326 56C85.2326 55.2229 85.5413 54.4775 86.0908 53.928C86.6403 53.3785 87.3856 53.0698 88.1628 53.0698H92.0698C92.8469 53.0698 93.5922 53.3785 94.1418 53.928C94.6913 54.4775 95 55.2229 95 56C95 56.7771 94.6913 57.5225 94.1418 58.072C93.5922 58.6215 92.8469 58.9302 92.0698 58.9302H88.1628C87.3856 58.9302 86.6403 58.6215 86.0908 58.072C85.5413 57.5225 85.2326 56.7771 85.2326 56ZM77.0201 80.0201C77.5695 79.4714 78.3143 79.1631 79.0908 79.1631C79.8673 79.1631 80.6121 79.4714 81.1615 80.0201L82.6969 81.5555C82.9848 81.8238 83.2157 82.1473 83.3759 82.5067C83.536 82.8662 83.6222 83.2542 83.6291 83.6476C83.636 84.0411 83.5637 84.4319 83.4163 84.7968C83.2689 85.1616 83.0496 85.4931 82.7713 85.7713C82.4931 86.0496 82.1616 86.2689 81.7968 86.4163C81.4319 86.5637 81.0411 86.636 80.6476 86.6291C80.2542 86.6222 79.8662 86.536 79.5067 86.3759C79.1473 86.2157 78.8238 85.9848 78.5555 85.6969L77.0201 84.1615C76.4714 83.6121 76.1631 82.8673 76.1631 82.0908C76.1631 81.3143 76.4714 80.5695 77.0201 80.0201ZM28.9799 80.0201C29.5286 80.5695 29.8369 81.3143 29.8369 82.0908C29.8369 82.8673 29.5286 83.6121 28.9799 84.1615L27.4445 85.6969C27.1762 85.9848 26.8527 86.2157 26.4933 86.3759C26.1338 86.536 25.7458 86.6222 25.3524 86.6291C24.9589 86.636 24.5681 86.5637 24.2032 86.4163C23.8384 86.2689 23.5069 86.0496 23.2287 85.7713C22.9504 85.4931 22.7311 85.1616 22.5837 84.7968C22.4363 84.4319 22.364 84.0411 22.3709 83.6476C22.3778 83.2542 22.464 82.8662 22.6241 82.5067C22.7843 82.1473 23.0152 81.8238 23.3031 81.5555L24.8346 80.0201C25.1067 79.7478 25.4298 79.5318 25.7855 79.3844C26.1411 79.237 26.5223 79.1612 26.9073 79.1612C27.2922 79.1612 27.6734 79.237 28.029 79.3844C28.3847 79.5318 28.7078 79.7478 28.9799 80.0201ZM53 88.2326C53.7771 88.2326 54.5225 88.5413 55.072 89.0908C55.6215 89.6403 55.9302 90.3856 55.9302 91.1628V95.0698C55.9302 95.8469 55.6215 96.5922 55.072 97.1418C54.5225 97.6913 53.7771 98 53 98C52.2229 98 51.4775 97.6913 50.928 97.1418C50.3785 96.5922 50.0698 95.8469 50.0698 95.0698V91.1628C50.0698 90.3856 50.3785 89.6403 50.928 89.0908C51.4775 88.5413 52.2229 88.2326 53 88.2326Z" fill="#EACF38"/>
<path d="M37.7126 52.3813L37.7127 52.3814C37.9029 52.7344 38.2081 52.9871 38.5374 53.1705L39.1188 53.4943L38.646 53.9626L35.7784 56.8028C35.6831 56.8972 35.6304 57.0244 35.6304 57.1559C35.6304 57.2874 35.6831 57.4145 35.7784 57.509C36.1869 57.9135 36.7182 58.174 37.2345 58.3426L38.013 58.5969L37.4312 59.1732L34.7671 61.8119C34.767 61.8119 34.767 61.8119 34.767 61.812C34.7669 61.812 34.7669 61.812 34.7669 61.812C34.7055 61.8729 34.6613 61.9479 34.638 62.0297C34.6147 62.1115 34.613 62.1978 34.6329 62.2804C34.6528 62.3631 34.6939 62.4398 34.7528 62.5031C34.8117 62.5664 34.8863 62.6141 34.97 62.6413L34.9705 62.6415C35.6399 62.8596 36.338 63.0163 37.0518 63.1573L37.0527 63.1575C37.8262 63.3117 38.7855 63.4642 39.8775 63.5626L40.5088 63.6195L40.3064 64.2202L39.7017 66.0153L37.7126 52.3813ZM37.7126 52.3813C37.6617 52.2868 37.643 52.179 37.6588 52.0736C37.6746 51.9683 37.7242 51.87 37.8014 51.7936C37.8014 51.7936 37.8014 51.7936 37.8014 51.7936L41.8473 47.7863L37.7126 52.3813ZM40.1875 66.6743H40.1876H44.2336H44.2337C44.3156 66.6744 44.3961 66.6551 44.4686 66.6184C44.541 66.5817 44.6031 66.5287 44.6501 66.4642C44.697 66.3997 44.7276 66.3254 44.7396 66.2476L45.2338 66.3238L44.7396 66.2476C44.7516 66.1697 44.7448 66.0902 44.7196 66.0153L44.1148 64.2202L43.9124 63.6195L44.5438 63.5626C45.6368 63.4642 46.5963 63.3117 47.3691 63.1584C48.0837 63.0162 48.786 62.8596 49.4545 62.6409C49.5376 62.6134 49.6118 62.5655 49.6703 62.5022C49.7287 62.4388 49.7695 62.3622 49.7892 62.2796C49.8089 62.1971 49.8069 62.111 49.7835 62.0294C49.7601 61.9477 49.7158 61.8729 49.6544 61.8121L49.6544 61.812L46.9901 59.1732L46.4072 58.5958L47.1875 58.3424C47.7026 58.1751 48.2342 57.9137 48.6428 57.509C48.7382 57.4145 48.7909 57.2874 48.7909 57.1559C48.7909 57.0244 48.7382 56.8972 48.6428 56.8028L45.7753 53.9626L45.3025 53.4943L45.8839 53.1705C46.2132 52.9871 46.5184 52.7344 46.7086 52.3814L46.7086 52.3813C46.7596 52.2868 46.7783 52.179 46.7625 52.0737L47.257 51.9995L46.7625 52.0736C46.7467 51.9683 46.697 51.87 46.6199 51.7936C46.6199 51.7936 46.6199 51.7936 46.6199 51.7936L42.574 47.7863C42.4784 47.6916 42.3478 47.6376 42.2106 47.6376C42.0735 47.6376 41.9429 47.6916 41.8474 47.7862L40.1875 66.6743ZM40.1875 66.6743C40.1057 66.6744 40.0252 66.6551 39.9527 66.6184C39.8803 66.5817 39.8182 66.5287 39.7712 66.4642C39.7242 66.3997 39.6937 66.3254 39.6817 66.2476C39.6697 66.1698 39.6765 66.0903 39.7016 66.0155L40.1875 66.6743Z" fill="#719A9C" stroke="#719A9C"/>
<path d="M56.9615 48.4671L56.9615 48.4672C57.2129 48.9456 57.6125 49.2813 58.0317 49.5206L58.5959 49.8428L58.14 50.3057L54.5897 53.9105C54.5897 53.9106 54.5897 53.9106 54.5897 53.9106C54.4478 54.0547 54.3668 54.2517 54.3668 54.4587C54.3668 54.6658 54.4478 54.8628 54.5897 55.0069L56.9615 48.4671ZM56.9615 48.4671C56.8844 48.3205 56.8555 48.1519 56.8797 47.9865C56.9039 47.8211 56.9796 47.6692 57.0943 47.5527C57.0943 47.5527 57.0943 47.5527 57.0943 47.5527L62.1036 42.4665L56.9615 48.4671ZM57.198 56.3484L56.636 56.9191L53.3375 60.2683C53.2462 60.3611 53.1791 60.4768 53.1436 60.6047C53.108 60.7327 53.1053 60.8679 53.1357 60.9973C53.1662 61.1267 53.2286 61.2452 53.3163 61.3418C53.4039 61.4384 53.5137 61.5099 53.6349 61.5502L53.6354 61.5504C54.4705 61.8293 55.3399 62.0293 56.2249 62.2085L56.2258 62.2087C57.1868 62.4051 58.3784 62.5993 59.7346 62.7246L60.3595 62.7823L60.1636 63.3785L59.4148 65.6569L57.198 56.3484ZM57.198 56.3484L56.4385 56.0942M57.198 56.3484L56.4385 56.0942M56.4385 56.0942C55.7904 55.8772 55.1138 55.5391 54.5897 55.007L56.4385 56.0942ZM60.128 66.6745H60.1281H65.1374H65.1376C65.2555 66.6745 65.372 66.6461 65.4776 66.5912C65.5833 66.5363 65.6754 66.4563 65.7459 66.3571C65.8163 66.2579 65.8629 66.1426 65.8813 66.0206C65.8996 65.8986 65.8892 65.774 65.8509 65.6572L60.128 66.6745ZM60.128 66.6745C60.0101 66.6745 59.8936 66.6461 59.7879 66.5912C59.6822 66.5363 59.5901 66.4563 59.5197 66.3571C59.4493 66.2579 59.4027 66.1426 59.3843 66.0206C59.3659 65.8986 59.3764 65.774 59.4147 65.6572L60.128 66.6745ZM65.102 63.3785L65.8508 65.6569L62.1036 42.4664C62.2453 42.3226 62.4358 42.2433 62.6328 42.2433C62.8298 42.2433 63.0203 42.3227 63.162 42.4665L68.1712 47.5527C68.2859 47.6692 68.3617 47.8211 68.3859 47.9865C68.4101 48.1519 68.3812 48.3205 68.3041 48.4671L68.304 48.4672C68.0527 48.9456 67.6531 49.2813 67.2339 49.5206L66.6697 49.8428L67.1256 50.3057L70.6759 53.9105C70.6759 53.9106 70.6759 53.9106 70.6759 53.9106C70.8178 54.0547 70.8988 54.2517 70.8988 54.4587C70.8988 54.6658 70.8178 54.8628 70.6759 55.0069C70.1516 55.5393 69.4748 55.8785 68.8279 56.0939L68.0665 56.3474L68.6296 56.9191L71.9282 60.2685L71.9283 60.2685C72.0195 60.3611 72.0865 60.4765 72.1223 60.6041C72.158 60.7317 72.161 60.8667 72.1309 60.9959C72.1009 61.125 72.039 61.2435 71.9518 61.3403C71.8649 61.4369 71.7558 61.5086 71.6353 61.5495C70.8011 61.8293 69.9263 62.0291 69.0403 62.2098C68.0802 62.4051 66.8884 62.5993 65.5311 62.7245L64.906 62.7822L65.102 63.3785Z" fill="#719A9C" stroke="#719A9C"/>
<path d="M39.8989 65.633C49.532 69.4862 56.4677 69.1009 66.1008 65.633" stroke="#719A9C"/>
<path d="M53.1641 61.3794V67.0202C53.1641 67.2655 53.0656 67.5007 52.8903 67.6741C52.7149 67.8475 52.4771 67.945 52.2292 67.945C51.9812 67.945 51.7434 67.8475 51.5681 67.6741C51.3927 67.5007 51.2942 67.2655 51.2942 67.0202V61.3794C50.2417 61.5933 49.1468 61.4421 48.1938 60.9511C47.2408 60.4601 46.4879 59.6594 46.0619 58.6837C45.6358 57.708 45.5626 56.6169 45.8546 55.5941C46.1465 54.5713 46.7858 53.6792 47.6648 53.0679C47.8964 52.0414 48.4747 51.1236 49.3044 50.4658C50.1342 49.808 51.1658 49.4496 52.2292 49.4496C53.2925 49.4496 54.3242 49.808 55.1539 50.4658C55.9836 51.1236 56.562 52.0414 56.7935 53.0679C57.6725 53.6792 58.3118 54.5713 58.6038 55.5941C58.8957 56.6169 58.8225 57.708 58.3965 58.6837C57.9704 59.6594 57.2175 60.4601 56.2645 60.9511C55.3115 61.4421 54.2166 61.5933 53.1641 61.3794Z" fill="#97B829"/>
<path d="M279.389 86.9043C264.742 81.5954 218.36 82.8295 197 84.1101C198.526 84.0212 253.451 83.0623 286 89" stroke="#EACF38" stroke-width="3" stroke-linecap="round"/>
<path d="M119.244 79.0679C119.813 79.0679 120.345 78.9631 120.839 78.7534C121.34 78.5363 121.752 78.2181 122.074 77.7988C122.404 77.3721 122.591 76.8517 122.636 76.2378H123.916C123.879 77.009 123.643 77.6978 123.208 78.3042C122.782 78.9032 122.22 79.3748 121.524 79.7192C120.835 80.0562 120.075 80.2246 119.244 80.2246C118.398 80.2246 117.649 80.0711 116.998 79.7642C116.354 79.4572 115.815 79.0304 115.381 78.4839C114.947 77.9299 114.617 77.286 114.393 76.5522C114.175 75.811 114.067 75.0137 114.067 74.1602V73.6885C114.067 72.835 114.175 72.0413 114.393 71.3076C114.617 70.5664 114.947 69.9225 115.381 69.376C115.815 68.8219 116.354 68.3914 116.998 68.0845C117.642 67.7775 118.387 67.624 119.233 67.624C120.101 67.624 120.88 67.8 121.569 68.1519C122.265 68.5037 122.819 69.0016 123.231 69.6455C123.65 70.2894 123.879 71.0531 123.916 71.9365H122.636C122.598 71.2852 122.426 70.7236 122.119 70.252C121.812 69.7803 121.408 69.4172 120.906 69.1626C120.405 68.908 119.847 68.7808 119.233 68.7808C118.544 68.7808 117.956 68.9155 117.47 69.1851C116.983 69.4471 116.586 69.8102 116.279 70.2744C115.98 70.7311 115.759 71.2552 115.617 71.8467C115.474 72.4307 115.403 73.0446 115.403 73.6885V74.1602C115.403 74.8115 115.471 75.4329 115.605 76.0244C115.748 76.6084 115.969 77.1287 116.268 77.5854C116.575 78.0422 116.972 78.4053 117.458 78.6748C117.953 78.9368 118.548 79.0679 119.244 79.0679ZM128.894 67.8486H130.23L130.028 72.2285C129.976 73.3965 129.845 74.411 129.635 75.272C129.433 76.1255 129.182 76.8555 128.883 77.4619C128.583 78.0609 128.254 78.5662 127.894 78.978C127.542 79.3823 127.183 79.723 126.816 80H126.086L126.109 78.8545L126.446 78.8433C126.663 78.5812 126.887 78.2855 127.119 77.9561C127.359 77.6191 127.587 77.2074 127.804 76.7207C128.022 76.234 128.209 75.6276 128.366 74.9014C128.523 74.1751 128.628 73.2842 128.68 72.2285L128.894 67.8486ZM129.332 67.8486H136.059V80H134.722V69.1064H129.332V67.8486ZM125.57 78.8433H137.328V83.5713H135.98V80H126.85V83.5713H125.57V78.8433ZM144.731 80.2246C143.938 80.2246 143.208 80.0786 142.542 79.7866C141.883 79.4946 141.306 79.0828 140.812 78.5513C140.325 78.0197 139.947 77.3908 139.678 76.6646C139.416 75.9308 139.285 75.1297 139.285 74.2612V73.7783C139.285 72.8424 139.423 71.9964 139.7 71.2402C139.977 70.484 140.359 69.8364 140.846 69.2974C141.332 68.7583 141.886 68.3465 142.508 68.062C143.137 67.77 143.796 67.624 144.484 67.624C145.256 67.624 145.941 67.7625 146.54 68.0396C147.139 68.3091 147.64 68.6947 148.044 69.1963C148.456 69.6904 148.767 70.2782 148.977 70.9595C149.186 71.6333 149.291 72.3783 149.291 73.1943V74.0142H140.093V72.8687H147.955V72.7114C147.94 72.0301 147.801 71.3937 147.539 70.8022C147.285 70.2033 146.903 69.7166 146.394 69.3423C145.884 68.9679 145.248 68.7808 144.484 68.7808C143.915 68.7808 143.391 68.9006 142.912 69.1401C142.44 69.3797 142.032 69.7241 141.688 70.1733C141.351 70.6151 141.089 71.1429 140.902 71.7568C140.722 72.3633 140.632 73.0371 140.632 73.7783V74.2612C140.632 74.9351 140.73 75.564 140.924 76.1479C141.126 76.7244 141.411 77.2336 141.778 77.6753C142.152 78.117 142.594 78.4614 143.103 78.7085C143.612 78.9556 144.174 79.0791 144.788 79.0791C145.506 79.0791 146.143 78.9481 146.697 78.686C147.251 78.4165 147.749 77.9935 148.19 77.417L149.033 78.0684C148.771 78.4577 148.441 78.8171 148.044 79.1465C147.655 79.4759 147.187 79.738 146.641 79.9326C146.094 80.1273 145.458 80.2246 144.731 80.2246ZM160.3 67.8486V69.0166H154.145V67.8486H160.3ZM161.389 67.8486V80H160.053V67.8486H161.389ZM153.786 67.8486H155.122L154.853 73.5425C154.808 74.4634 154.733 75.2795 154.628 75.9907C154.531 76.702 154.396 77.3122 154.224 77.8213C154.052 78.3229 153.831 78.7347 153.561 79.0566C153.299 79.3786 152.981 79.6182 152.607 79.7754C152.232 79.9251 151.794 80 151.293 80H150.787V78.7871L151.203 78.7759C151.525 78.7609 151.806 78.6935 152.045 78.5737C152.292 78.4539 152.502 78.263 152.674 78.001C152.854 77.7389 153 77.3945 153.112 76.9678C153.232 76.541 153.325 76.0207 153.393 75.4067C153.468 74.7853 153.524 74.0553 153.561 73.2168L153.786 67.8486ZM172.521 77.8213V71.5547C172.521 70.9782 172.401 70.4803 172.162 70.061C171.922 69.6418 171.57 69.3198 171.106 69.0952C170.642 68.8706 170.069 68.7583 169.388 68.7583C168.759 68.7583 168.197 68.8706 167.703 69.0952C167.217 69.3123 166.831 69.6081 166.546 69.9824C166.269 70.3493 166.131 70.7573 166.131 71.2065L164.783 71.1953C164.783 70.7386 164.896 70.2969 165.12 69.8701C165.345 69.4434 165.663 69.0615 166.075 68.7246C166.487 68.3877 166.977 68.1219 167.546 67.9272C168.122 67.7251 168.755 67.624 169.444 67.624C170.312 67.624 171.076 67.77 171.735 68.062C172.401 68.354 172.922 68.792 173.296 69.376C173.67 69.96 173.857 70.6937 173.857 71.5771V77.4507C173.857 77.87 173.887 78.3042 173.947 78.7534C174.015 79.2026 174.108 79.5732 174.228 79.8652V80H172.802C172.712 79.7305 172.641 79.3936 172.588 78.9893C172.543 78.5775 172.521 78.1882 172.521 77.8213ZM172.835 72.9248L172.858 73.958H170.219C169.53 73.958 168.912 74.0216 168.366 74.1489C167.827 74.2687 167.37 74.4484 166.996 74.688C166.621 74.9201 166.333 75.2008 166.131 75.5303C165.936 75.8597 165.839 76.234 165.839 76.6533C165.839 77.0876 165.947 77.4844 166.165 77.8438C166.389 78.2031 166.704 78.4914 167.108 78.7085C167.52 78.9181 168.006 79.0229 168.568 79.0229C169.317 79.0229 169.975 78.8844 170.544 78.6074C171.121 78.3304 171.596 77.9673 171.971 77.5181C172.345 77.0688 172.596 76.5785 172.723 76.0469L173.307 76.8218C173.21 77.1961 173.03 77.5817 172.768 77.9785C172.514 78.3678 172.18 78.7347 171.769 79.0791C171.357 79.416 170.87 79.693 170.309 79.9102C169.755 80.1198 169.126 80.2246 168.422 80.2246C167.628 80.2246 166.936 80.0749 166.344 79.7754C165.76 79.4759 165.304 79.0679 164.974 78.5513C164.652 78.0272 164.491 77.4357 164.491 76.7769C164.491 76.1779 164.619 75.6426 164.873 75.1709C165.128 74.6917 165.495 74.2874 165.974 73.958C166.46 73.6211 167.044 73.3665 167.726 73.1943C168.414 73.0146 169.186 72.9248 170.039 72.9248H172.835ZM182.272 80.2246C181.478 80.2246 180.748 80.0786 180.082 79.7866C179.423 79.4946 178.846 79.0828 178.352 78.5513C177.866 78.0197 177.488 77.3908 177.218 76.6646C176.956 75.9308 176.825 75.1297 176.825 74.2612V73.7783C176.825 72.8424 176.964 71.9964 177.241 71.2402C177.518 70.484 177.899 69.8364 178.386 69.2974C178.873 68.7583 179.427 68.3465 180.048 68.062C180.677 67.77 181.336 67.624 182.025 67.624C182.796 67.624 183.481 67.7625 184.08 68.0396C184.679 68.3091 185.18 68.6947 185.585 69.1963C185.997 69.6904 186.307 70.2782 186.517 70.9595C186.727 71.6333 186.831 72.3783 186.831 73.1943V74.0142H177.634V72.8687H185.495V72.7114C185.48 72.0301 185.341 71.3937 185.079 70.8022C184.825 70.2033 184.443 69.7166 183.934 69.3423C183.425 68.9679 182.788 68.7808 182.025 68.7808C181.456 68.7808 180.932 68.9006 180.452 69.1401C179.981 69.3797 179.573 69.7241 179.228 70.1733C178.891 70.6151 178.629 71.1429 178.442 71.7568C178.263 72.3633 178.173 73.0371 178.173 73.7783V74.2612C178.173 74.9351 178.27 75.564 178.465 76.1479C178.667 76.7244 178.951 77.2336 179.318 77.6753C179.693 78.117 180.134 78.4614 180.643 78.7085C181.152 78.9556 181.714 79.0791 182.328 79.0791C183.047 79.0791 183.683 78.9481 184.237 78.686C184.791 78.4165 185.289 77.9935 185.731 77.417L186.573 78.0684C186.311 78.4577 185.982 78.8171 185.585 79.1465C185.195 79.4759 184.728 79.738 184.181 79.9326C183.634 80.1273 182.998 80.2246 182.272 80.2246ZM196.313 78.1582L201.142 67.8486H202.478L196.784 80H195.841L190.158 67.8486H191.495L196.313 78.1582ZM191.079 67.8486V80H189.743V67.8486H191.079ZM201.456 80V67.8486H202.804V80H201.456ZM220.508 67.8486V69.0166H214.354V67.8486H220.508ZM221.598 67.8486V80H220.261V67.8486H221.598ZM213.995 67.8486H215.331L215.062 73.5425C215.017 74.4634 214.942 75.2795 214.837 75.9907C214.74 76.702 214.605 77.3122 214.433 77.8213C214.26 78.3229 214.04 78.7347 213.77 79.0566C213.508 79.3786 213.19 79.6182 212.816 79.7754C212.441 79.9251 212.003 80 211.502 80H210.996V78.7871L211.412 78.7759C211.734 78.7609 212.014 78.6935 212.254 78.5737C212.501 78.4539 212.711 78.263 212.883 78.001C213.063 77.7389 213.209 77.3945 213.321 76.9678C213.441 76.541 213.534 76.0207 213.602 75.4067C213.677 74.7853 213.733 74.0553 213.77 73.2168L213.995 67.8486ZM228.945 78.7871L232.73 67.8486H234.179L229.035 81.9541C228.93 82.2311 228.795 82.5381 228.631 82.875C228.473 83.2119 228.264 83.5339 228.002 83.8408C227.747 84.1553 227.425 84.4098 227.036 84.6045C226.654 84.8066 226.186 84.9077 225.632 84.9077C225.49 84.9077 225.306 84.889 225.082 84.8516C224.865 84.8216 224.708 84.7917 224.61 84.7617L224.599 83.6274C224.681 83.6499 224.801 83.6686 224.958 83.6836C225.116 83.6986 225.224 83.7061 225.284 83.7061C225.771 83.7061 226.179 83.6237 226.508 83.459C226.845 83.2943 227.126 83.0472 227.35 82.7178C227.575 82.3958 227.773 81.9915 227.946 81.5049L228.945 78.7871ZM225.408 67.8486L229.282 78.2817L229.641 79.6855L228.664 80.2358L223.948 67.8486H225.408ZM245.03 67.8486V80H243.693V67.8486H245.03ZM244.569 73.3628V74.5195C244.225 74.6842 243.828 74.8415 243.379 74.9912C242.937 75.141 242.469 75.2645 241.975 75.3618C241.489 75.4517 241.002 75.4966 240.515 75.4966C239.512 75.4966 238.662 75.3506 237.966 75.0586C237.277 74.7666 236.757 74.2874 236.405 73.6211C236.053 72.9473 235.877 72.0488 235.877 70.9258V67.8374H237.213V70.9258C237.213 71.7868 237.333 72.4681 237.573 72.9697C237.812 73.4639 238.176 73.8158 238.662 74.0254C239.149 74.235 239.767 74.3398 240.515 74.3398C241.032 74.3249 241.545 74.2725 242.054 74.1826C242.563 74.0853 243.035 73.9655 243.469 73.8232C243.911 73.6735 244.277 73.52 244.569 73.3628ZM248.84 67.8486H250.176V78.8433H255.589V67.8486H256.937V78.8433H262.294V67.8486H263.63V80H248.84V67.8486ZM271.82 80.2246C271.026 80.2246 270.296 80.0786 269.63 79.7866C268.971 79.4946 268.395 79.0828 267.901 78.5513C267.414 78.0197 267.036 77.3908 266.766 76.6646C266.504 75.9308 266.373 75.1297 266.373 74.2612V73.7783C266.373 72.8424 266.512 71.9964 266.789 71.2402C267.066 70.484 267.448 69.8364 267.934 69.2974C268.421 68.7583 268.975 68.3465 269.596 68.062C270.225 67.77 270.884 67.624 271.573 67.624C272.344 67.624 273.029 67.7625 273.628 68.0396C274.227 68.3091 274.729 68.6947 275.133 69.1963C275.545 69.6904 275.855 70.2782 276.065 70.9595C276.275 71.6333 276.38 72.3783 276.38 73.1943V74.0142H267.182V72.8687H275.043V72.7114C275.028 72.0301 274.89 71.3937 274.628 70.8022C274.373 70.2033 273.991 69.7166 273.482 69.3423C272.973 68.9679 272.337 68.7808 271.573 68.7808C271.004 68.7808 270.48 68.9006 270.001 69.1401C269.529 69.3797 269.121 69.7241 268.776 70.1733C268.44 70.6151 268.178 71.1429 267.99 71.7568C267.811 72.3633 267.721 73.0371 267.721 73.7783V74.2612C267.721 74.9351 267.818 75.564 268.013 76.1479C268.215 76.7244 268.499 77.2336 268.866 77.6753C269.241 78.117 269.682 78.4614 270.192 78.7085C270.701 78.9556 271.262 79.0791 271.876 79.0791C272.595 79.0791 273.231 78.9481 273.785 78.686C274.339 78.4165 274.837 77.9935 275.279 77.417L276.121 78.0684C275.859 78.4577 275.53 78.8171 275.133 79.1465C274.744 79.4759 274.276 79.738 273.729 79.9326C273.183 80.1273 272.546 80.2246 271.82 80.2246Z" fill="#666666"/>
<path d="M124.914 46.5977H119.074L119.055 42.457H124.016C124.797 42.457 125.435 42.3268 125.93 42.0664C126.438 41.793 126.809 41.3958 127.043 40.875C127.29 40.3411 127.414 39.6901 127.414 38.9219C127.414 38.0625 127.297 37.3724 127.062 36.8516C126.841 36.3177 126.483 35.9271 125.988 35.6797C125.507 35.4323 124.868 35.3086 124.074 35.3086H121.027V59H115.305V30.5625H124.074C125.493 30.5625 126.763 30.7188 127.883 31.0312C129.003 31.3438 129.947 31.819 130.715 32.457C131.496 33.0951 132.095 33.9023 132.512 34.8789C132.928 35.8555 133.137 37.0078 133.137 38.3359C133.137 39.5078 132.902 40.5885 132.434 41.5781C131.965 42.5677 131.229 43.3815 130.227 44.0195C129.237 44.6445 127.941 44.9896 126.34 45.0547L124.914 46.5977ZM124.699 59H117.453L119.738 54.2734H124.699C125.467 54.2734 126.079 54.1107 126.535 53.7852C126.991 53.4596 127.323 53.0234 127.531 52.4766C127.753 51.9167 127.863 51.2786 127.863 50.5625C127.863 49.7552 127.766 49.0521 127.57 48.4531C127.388 47.8542 127.082 47.3984 126.652 47.0859C126.223 46.7604 125.643 46.5977 124.914 46.5977H119.992L120.031 42.457H126.008L127.355 44.0977C128.879 44.0456 130.096 44.3385 131.008 44.9766C131.919 45.6016 132.57 46.4219 132.961 47.4375C133.365 48.4401 133.566 49.5078 133.566 50.6406C133.566 52.4635 133.221 54 132.531 55.25C131.854 56.487 130.858 57.4245 129.543 58.0625C128.228 58.6875 126.613 59 124.699 59ZM156.566 51.4219L160.531 37.8672H165.043L158.559 59H154.535L148.012 37.8672H152.621L156.566 51.4219ZM151.137 37.8672V59H145.844V37.8672H151.137ZM162.113 59V37.8672H167.426V59H162.113ZM188.57 59.3906C187.125 59.3906 185.842 59.1693 184.723 58.7266C183.616 58.2839 182.678 57.6458 181.91 56.8125C181.142 55.9661 180.556 54.944 180.152 53.7461C179.749 52.5482 179.547 51.181 179.547 49.6445V47.9062C179.547 46.1875 179.742 44.6836 180.133 43.3945C180.523 42.0924 181.077 40.9987 181.793 40.1133C182.509 39.2279 183.388 38.5703 184.43 38.1406C185.484 37.6979 186.676 37.4766 188.004 37.4766C189.332 37.4766 190.497 37.6979 191.5 38.1406C192.516 38.5703 193.355 39.2214 194.02 40.0938C194.684 40.9531 195.185 42.0208 195.523 43.2969C195.862 44.5729 196.031 46.0573 196.031 47.75V50.25H181.871V46.4023H190.66V45.9141C190.66 45.0547 190.569 44.3385 190.387 43.7656C190.204 43.1797 189.918 42.7435 189.527 42.457C189.137 42.1706 188.616 42.0273 187.965 42.0273C187.418 42.0273 186.956 42.138 186.578 42.3594C186.201 42.5807 185.901 42.9258 185.68 43.3945C185.458 43.8633 185.296 44.4753 185.191 45.2305C185.087 45.9727 185.035 46.8646 185.035 47.9062V49.6445C185.035 50.6211 185.12 51.4414 185.289 52.1055C185.458 52.7565 185.706 53.2904 186.031 53.707C186.37 54.1107 186.78 54.4036 187.262 54.5859C187.743 54.7552 188.303 54.8398 188.941 54.8398C189.905 54.8398 190.771 54.6706 191.539 54.332C192.32 53.9805 192.984 53.5052 193.531 52.9062L195.719 56.2266C195.341 56.7214 194.82 57.2161 194.156 57.7109C193.492 58.2057 192.698 58.6094 191.773 58.9219C190.849 59.2344 189.781 59.3906 188.57 59.3906ZM214.832 54.8398C215.34 54.8398 215.776 54.7357 216.141 54.5273C216.518 54.319 216.805 53.9805 217 53.5117C217.195 53.043 217.299 52.4375 217.312 51.6953H222.449C222.449 53.2839 222.111 54.6576 221.434 55.8164C220.77 56.9622 219.871 57.8477 218.738 58.4727C217.618 59.0846 216.349 59.3906 214.93 59.3906C213.51 59.3906 212.273 59.1628 211.219 58.707C210.164 58.2513 209.292 57.5872 208.602 56.7148C207.924 55.8424 207.41 54.7812 207.059 53.5312C206.72 52.2682 206.551 50.8229 206.551 49.1953V47.6523C206.551 46.0508 206.72 44.6185 207.059 43.3555C207.41 42.0924 207.924 41.0247 208.602 40.1523C209.292 39.2799 210.158 38.6159 211.199 38.1602C212.254 37.7044 213.491 37.4766 214.91 37.4766C216.434 37.4766 217.755 37.7956 218.875 38.4336C219.995 39.0586 220.867 39.9831 221.492 41.207C222.13 42.431 222.449 43.9414 222.449 45.7383H217.312C217.299 44.931 217.202 44.2604 217.02 43.7266C216.85 43.1797 216.583 42.763 216.219 42.4766C215.867 42.1771 215.398 42.0273 214.812 42.0273C214.201 42.0273 213.706 42.1576 213.328 42.418C212.964 42.6654 212.684 43.0299 212.488 43.5117C212.306 43.9805 212.182 44.5664 212.117 45.2695C212.052 45.9727 212.02 46.7669 212.02 47.6523V49.1953C212.02 50.1458 212.046 50.9727 212.098 51.6758C212.163 52.3659 212.286 52.9518 212.469 53.4336C212.664 53.9023 212.944 54.2539 213.309 54.4883C213.686 54.7227 214.194 54.8398 214.832 54.8398ZM243.34 37.8672V59H237.852V37.8672H243.34ZM248.77 37.8672V42.3789H232.441V37.8672H248.77ZM267.023 59.3906C265.578 59.3906 264.296 59.1693 263.176 58.7266C262.069 58.2839 261.132 57.6458 260.363 56.8125C259.595 55.9661 259.009 54.944 258.605 53.7461C258.202 52.5482 258 51.181 258 49.6445V47.9062C258 46.1875 258.195 44.6836 258.586 43.3945C258.977 42.0924 259.53 40.9987 260.246 40.1133C260.962 39.2279 261.841 38.5703 262.883 38.1406C263.938 37.6979 265.129 37.4766 266.457 37.4766C267.785 37.4766 268.951 37.6979 269.953 38.1406C270.969 38.5703 271.809 39.2214 272.473 40.0938C273.137 40.9531 273.638 42.0208 273.977 43.2969C274.315 44.5729 274.484 46.0573 274.484 47.75V50.25H260.324V46.4023H269.113V45.9141C269.113 45.0547 269.022 44.3385 268.84 43.7656C268.658 43.1797 268.371 42.7435 267.98 42.457C267.59 42.1706 267.069 42.0273 266.418 42.0273C265.871 42.0273 265.409 42.138 265.031 42.3594C264.654 42.5807 264.354 42.9258 264.133 43.3945C263.911 43.8633 263.749 44.4753 263.645 45.2305C263.54 45.9727 263.488 46.8646 263.488 47.9062V49.6445C263.488 50.6211 263.573 51.4414 263.742 52.1055C263.911 52.7565 264.159 53.2904 264.484 53.707C264.823 54.1107 265.233 54.4036 265.715 54.5859C266.197 54.7552 266.757 54.8398 267.395 54.8398C268.358 54.8398 269.224 54.6706 269.992 54.332C270.773 53.9805 271.438 53.5052 271.984 52.9062L274.172 56.2266C273.794 56.7214 273.273 57.2161 272.609 57.7109C271.945 58.2057 271.151 58.6094 270.227 58.9219C269.302 59.2344 268.234 59.3906 267.023 59.3906Z" fill="#426365"/>
</svg>
