<svg width="29" height="29" viewBox="0 0 29 29" fill="none" xmlns="http://www.w3.org/2000/svg">
<path d="M18.8503 15.3266V6.16265C18.8503 5.87422 18.7357 5.59761 18.5318 5.39367C18.3278 5.18972 18.0512 5.07515 17.7628 5.07515C17.4744 5.07515 17.1978 5.18972 16.9938 5.39367C16.7899 5.59761 16.6753 5.87422 16.6753 6.16265V13.7751H15.2253V3.98765C15.2253 3.84483 15.1972 3.70342 15.1425 3.57148C15.0879 3.43954 15.0078 3.31965 14.9068 3.21867C14.8058 3.11768 14.6859 3.03758 14.554 2.98293C14.422 2.92828 14.2806 2.90015 14.1378 2.90015C13.995 2.90015 13.8536 2.92828 13.7216 2.98293C13.5897 3.03758 13.4698 3.11768 13.3688 3.21867C13.2678 3.31965 13.1877 3.43954 13.1331 3.57148C13.0784 3.70342 13.0503 3.84483 13.0503 3.98765V13.7751H11.6003V6.16265C11.6003 5.87422 11.4857 5.59761 11.2818 5.39367C11.0778 5.18972 10.8012 5.07515 10.5128 5.07515C10.2244 5.07515 9.94776 5.18972 9.74381 5.39367C9.53987 5.59761 9.42529 5.87422 9.42529 6.16265V15.2251H7.97529V9.06265C7.97529 8.77422 7.86072 8.49761 7.65677 8.29367C7.45283 8.08972 7.17622 7.97515 6.88779 7.97515C6.59937 7.97515 6.32276 8.08972 6.11881 8.29367C5.91487 8.49761 5.80029 8.77422 5.80029 9.06265V18.6602C5.80053 20.3202 6.35587 21.9325 7.37797 23.2405C8.40007 24.5485 9.83021 25.4772 11.4409 25.8788C13.0516 26.2804 14.7503 26.1318 16.2669 25.4567C17.7834 24.7817 19.0307 23.6188 19.8102 22.1532L24.092 14.1007C24.1744 13.9491 24.2262 13.7828 24.2443 13.6112C24.2624 13.4396 24.2466 13.2662 24.1977 13.1007C24.1488 12.9353 24.0678 12.7811 23.9593 12.647C23.8508 12.5128 23.7169 12.4014 23.5653 12.319C23.4138 12.2366 23.2474 12.1848 23.0759 12.1667C22.9043 12.1486 22.7308 12.1644 22.5654 12.2133C22.4 12.2623 22.2458 12.3433 22.1116 12.4518C21.9775 12.5603 21.866 12.6941 21.7836 12.8457L20.2089 15.6797C19.8464 16.3337 18.8503 16.0756 18.8503 15.3274V15.3266Z" fill="#C56625"/>
<path fill-rule="evenodd" clip-rule="evenodd" d="M14.5 0C22.5084 0 29 6.49165 29 14.5C29 22.5084 22.5084 29 14.5 29C6.49165 29 0 22.5084 0 14.5C0 6.49165 6.49165 0 14.5 0ZM27.6189 14.5C27.6189 7.25435 21.7457 1.38113 14.5 1.38113C7.25435 1.38113 1.38113 7.25435 1.38113 14.5C1.38113 21.7457 7.25435 27.6189 14.5 27.6189C21.7457 27.6189 27.6189 21.7457 27.6189 14.5Z" fill="#C56625"/>
</svg>
