<svg width="29" height="29" viewBox="0 0 29 29" fill="none" xmlns="http://www.w3.org/2000/svg">
<path d="M25.3333 0H3.16667C2.32681 0 1.52136 0.33363 0.927495 0.927495C0.33363 1.52136 0 2.32681 0 3.16667V25.3333C0 26.1732 0.33363 26.9786 0.927495 27.5725C1.52136 28.1664 2.32681 28.5 3.16667 28.5H25.3333C26.1732 28.5 26.9786 28.1664 27.5725 27.5725C28.1664 26.9786 28.5 26.1732 28.5 25.3333V3.16667C28.5 2.32681 28.1664 1.52136 27.5725 0.927495C26.9786 0.33363 26.1732 0 25.3333 0ZM25.3333 3.16667V25.3333H3.16667V3.16667H25.3333ZM11.0833 22.1667L4.75 15.8333L6.9825 13.585L11.0833 17.6858L21.5175 7.25167L23.75 9.5" fill="#97B829"/>
</svg>
