<svg xmlns="http://www.w3.org/2000/svg" version="1.1" xmlns:xlink="http://www.w3.org/1999/xlink" xmlns:svgjs="http://svgjs.dev/svgjs" width="1440" height="560" preserveAspectRatio="none" viewBox="0 0 1440 560"><g mask="url(&quot;#SvgjsMask1020&quot;)" fill="none"><path d="M201.54 488.75L266.5 526.25L266.5 601.25L201.54 638.75L136.59 601.25L136.59 526.25zM396.4 151.25L461.36 188.75L461.36 263.75L396.4 301.25L331.45 263.75L331.45 188.75zM591.26 38.75L656.22 76.25L656.22 151.25L591.26 188.75L526.31 151.25L526.31 76.25zM526.31 376.25L591.26 413.75L591.26 488.75L526.31 526.25L461.36 488.75L461.36 413.75zM721.17 263.75L786.13 301.25L786.13 376.25L721.17 413.75L656.22 376.25L656.22 301.25zM721.17 488.75L786.13 526.25L786.13 601.25L721.17 638.75L656.22 601.25L656.22 526.25zM851.08 38.75L916.03 76.25L916.03 151.25L851.08 188.75L786.12 151.25L786.12 76.25zM980.99 38.75L1045.94 76.25L1045.94 151.25L980.99 188.75L916.03 151.25L916.03 76.25zM1175.85 -73.75L1240.8 -36.25L1240.8 38.75L1175.85 76.25L1110.89 38.75L1110.89 -36.25zM1175.85 151.25L1240.8 188.75L1240.8 263.75L1175.85 301.25L1110.89 263.75L1110.89 188.75zM1240.8 263.75L1305.75 301.25L1305.75 376.25L1240.8 413.75L1175.85 376.25L1175.85 301.25z" stroke="rgba(255, 218, 165, 1)" stroke-width="2"></path><path d="M194.04 488.75 a7.5 7.5 0 1 0 15 0 a7.5 7.5 0 1 0 -15 0zM259 526.25 a7.5 7.5 0 1 0 15 0 a7.5 7.5 0 1 0 -15 0zM259 601.25 a7.5 7.5 0 1 0 15 0 a7.5 7.5 0 1 0 -15 0zM194.04 638.75 a7.5 7.5 0 1 0 15 0 a7.5 7.5 0 1 0 -15 0zM129.09 601.25 a7.5 7.5 0 1 0 15 0 a7.5 7.5 0 1 0 -15 0zM129.09 526.25 a7.5 7.5 0 1 0 15 0 a7.5 7.5 0 1 0 -15 0zM388.9 151.25 a7.5 7.5 0 1 0 15 0 a7.5 7.5 0 1 0 -15 0zM453.86 188.75 a7.5 7.5 0 1 0 15 0 a7.5 7.5 0 1 0 -15 0zM453.86 263.75 a7.5 7.5 0 1 0 15 0 a7.5 7.5 0 1 0 -15 0zM388.9 301.25 a7.5 7.5 0 1 0 15 0 a7.5 7.5 0 1 0 -15 0zM323.95 263.75 a7.5 7.5 0 1 0 15 0 a7.5 7.5 0 1 0 -15 0zM323.95 188.75 a7.5 7.5 0 1 0 15 0 a7.5 7.5 0 1 0 -15 0zM583.76 38.75 a7.5 7.5 0 1 0 15 0 a7.5 7.5 0 1 0 -15 0zM648.72 76.25 a7.5 7.5 0 1 0 15 0 a7.5 7.5 0 1 0 -15 0zM648.72 151.25 a7.5 7.5 0 1 0 15 0 a7.5 7.5 0 1 0 -15 0zM583.76 188.75 a7.5 7.5 0 1 0 15 0 a7.5 7.5 0 1 0 -15 0zM518.81 151.25 a7.5 7.5 0 1 0 15 0 a7.5 7.5 0 1 0 -15 0zM518.81 76.25 a7.5 7.5 0 1 0 15 0 a7.5 7.5 0 1 0 -15 0zM518.81 376.25 a7.5 7.5 0 1 0 15 0 a7.5 7.5 0 1 0 -15 0zM583.76 413.75 a7.5 7.5 0 1 0 15 0 a7.5 7.5 0 1 0 -15 0zM583.76 488.75 a7.5 7.5 0 1 0 15 0 a7.5 7.5 0 1 0 -15 0zM518.81 526.25 a7.5 7.5 0 1 0 15 0 a7.5 7.5 0 1 0 -15 0zM453.86 488.75 a7.5 7.5 0 1 0 15 0 a7.5 7.5 0 1 0 -15 0zM453.86 413.75 a7.5 7.5 0 1 0 15 0 a7.5 7.5 0 1 0 -15 0zM713.67 263.75 a7.5 7.5 0 1 0 15 0 a7.5 7.5 0 1 0 -15 0zM778.63 301.25 a7.5 7.5 0 1 0 15 0 a7.5 7.5 0 1 0 -15 0zM778.63 376.25 a7.5 7.5 0 1 0 15 0 a7.5 7.5 0 1 0 -15 0zM713.67 413.75 a7.5 7.5 0 1 0 15 0 a7.5 7.5 0 1 0 -15 0zM648.72 376.25 a7.5 7.5 0 1 0 15 0 a7.5 7.5 0 1 0 -15 0zM648.72 301.25 a7.5 7.5 0 1 0 15 0 a7.5 7.5 0 1 0 -15 0zM713.67 488.75 a7.5 7.5 0 1 0 15 0 a7.5 7.5 0 1 0 -15 0zM778.63 526.25 a7.5 7.5 0 1 0 15 0 a7.5 7.5 0 1 0 -15 0zM778.63 601.25 a7.5 7.5 0 1 0 15 0 a7.5 7.5 0 1 0 -15 0zM713.67 638.75 a7.5 7.5 0 1 0 15 0 a7.5 7.5 0 1 0 -15 0zM648.72 601.25 a7.5 7.5 0 1 0 15 0 a7.5 7.5 0 1 0 -15 0zM648.72 526.25 a7.5 7.5 0 1 0 15 0 a7.5 7.5 0 1 0 -15 0zM843.58 38.75 a7.5 7.5 0 1 0 15 0 a7.5 7.5 0 1 0 -15 0zM908.53 76.25 a7.5 7.5 0 1 0 15 0 a7.5 7.5 0 1 0 -15 0zM908.53 151.25 a7.5 7.5 0 1 0 15 0 a7.5 7.5 0 1 0 -15 0zM843.58 188.75 a7.5 7.5 0 1 0 15 0 a7.5 7.5 0 1 0 -15 0zM778.62 151.25 a7.5 7.5 0 1 0 15 0 a7.5 7.5 0 1 0 -15 0zM778.62 76.25 a7.5 7.5 0 1 0 15 0 a7.5 7.5 0 1 0 -15 0zM973.49 38.75 a7.5 7.5 0 1 0 15 0 a7.5 7.5 0 1 0 -15 0zM1038.44 76.25 a7.5 7.5 0 1 0 15 0 a7.5 7.5 0 1 0 -15 0zM1038.44 151.25 a7.5 7.5 0 1 0 15 0 a7.5 7.5 0 1 0 -15 0zM973.49 188.75 a7.5 7.5 0 1 0 15 0 a7.5 7.5 0 1 0 -15 0zM1168.35 -73.75 a7.5 7.5 0 1 0 15 0 a7.5 7.5 0 1 0 -15 0zM1233.3 -36.25 a7.5 7.5 0 1 0 15 0 a7.5 7.5 0 1 0 -15 0zM1233.3 38.75 a7.5 7.5 0 1 0 15 0 a7.5 7.5 0 1 0 -15 0zM1168.35 76.25 a7.5 7.5 0 1 0 15 0 a7.5 7.5 0 1 0 -15 0zM1103.39 38.75 a7.5 7.5 0 1 0 15 0 a7.5 7.5 0 1 0 -15 0zM1103.39 -36.25 a7.5 7.5 0 1 0 15 0 a7.5 7.5 0 1 0 -15 0zM1168.35 151.25 a7.5 7.5 0 1 0 15 0 a7.5 7.5 0 1 0 -15 0zM1233.3 188.75 a7.5 7.5 0 1 0 15 0 a7.5 7.5 0 1 0 -15 0zM1233.3 263.75 a7.5 7.5 0 1 0 15 0 a7.5 7.5 0 1 0 -15 0zM1168.35 301.25 a7.5 7.5 0 1 0 15 0 a7.5 7.5 0 1 0 -15 0zM1103.39 263.75 a7.5 7.5 0 1 0 15 0 a7.5 7.5 0 1 0 -15 0zM1103.39 188.75 a7.5 7.5 0 1 0 15 0 a7.5 7.5 0 1 0 -15 0zM1298.25 301.25 a7.5 7.5 0 1 0 15 0 a7.5 7.5 0 1 0 -15 0zM1298.25 376.25 a7.5 7.5 0 1 0 15 0 a7.5 7.5 0 1 0 -15 0zM1233.3 413.75 a7.5 7.5 0 1 0 15 0 a7.5 7.5 0 1 0 -15 0zM1168.35 376.25 a7.5 7.5 0 1 0 15 0 a7.5 7.5 0 1 0 -15 0z" fill="rgba(255, 218, 165, 1)"></path><path d="M50.01 59.44L93.31 84.44L93.31 134.44L50.01 159.44L6.71 134.44L6.71 84.44zM6.71 134.44L50.01 159.44L50.01 209.44L6.71 234.44L-36.59 209.44L-36.59 159.44zM50.01 359.44L93.31 384.44L93.31 434.44L50.01 459.44L6.71 434.44L6.71 384.44zM136.62 59.44L179.92 84.44L179.92 134.44L136.62 159.44L93.31 134.44L93.31 84.44zM93.31 134.44L136.62 159.44L136.62 209.44L93.31 234.44L50.01 209.44L50.01 159.44zM93.31 434.44L136.62 459.44L136.62 509.44L93.31 534.44L50.01 509.44L50.01 459.44zM223.22 59.44L266.52 84.44L266.52 134.44L223.22 159.44L179.92 134.44L179.92 84.44zM179.92 134.44L223.22 159.44L223.22 209.44L179.92 234.44L136.62 209.44L136.62 159.44zM223.22 209.44L266.52 234.44L266.52 284.44L223.22 309.44L179.92 284.44L179.92 234.44zM179.92 284.44L223.22 309.44L223.22 359.44L179.92 384.44L136.62 359.44L136.62 309.44zM223.22 359.44L266.52 384.44L266.52 434.44L223.22 459.44L179.92 434.44L179.92 384.44zM309.83 209.44L353.13 234.44L353.13 284.44L309.83 309.44L266.52 284.44L266.52 234.44zM309.83 359.44L353.13 384.44L353.13 434.44L309.83 459.44L266.52 434.44L266.52 384.44zM266.52 434.44L309.83 459.44L309.83 509.44L266.52 534.44L223.22 509.44L223.22 459.44zM353.13 -15.56L396.43 9.44L396.43 59.44L353.13 84.44L309.83 59.44L309.83 9.44zM353.13 134.44L396.43 159.44L396.43 209.44L353.13 234.44L309.83 209.44L309.83 159.44zM396.43 209.44L439.74 234.44L439.74 284.44L396.43 309.44L353.13 284.44L353.13 234.44zM353.13 434.44L396.43 459.44L396.43 509.44L353.13 534.44L309.83 509.44L309.83 459.44zM396.43 509.44L439.74 534.44L439.74 584.44L396.43 609.44L353.13 584.44L353.13 534.44zM439.74 284.44L483.04 309.44L483.04 359.44L439.74 384.44L396.43 359.44L396.43 309.44zM483.04 359.44L526.34 384.44L526.34 434.44L483.04 459.44L439.74 434.44L439.74 384.44zM483.04 509.44L526.34 534.44L526.34 584.44L483.04 609.44L439.74 584.44L439.74 534.44zM569.64 59.44L612.95 84.44L612.95 134.44L569.64 159.44L526.34 134.44L526.34 84.44zM569.64 209.44L612.95 234.44L612.95 284.44L569.64 309.44L526.34 284.44L526.34 234.44zM526.34 434.44L569.64 459.44L569.64 509.44L526.34 534.44L483.04 509.44L483.04 459.44zM612.95 -15.56L656.25 9.44L656.25 59.44L612.95 84.44L569.64 59.44L569.64 9.44zM656.25 59.44L699.55 84.44L699.55 134.44L656.25 159.44L612.95 134.44L612.95 84.44zM612.95 134.44L656.25 159.44L656.25 209.44L612.95 234.44L569.64 209.44L569.64 159.44zM656.25 209.44L699.55 234.44L699.55 284.44L656.25 309.44L612.95 284.44L612.95 234.44zM742.85 59.44L786.16 84.44L786.16 134.44L742.85 159.44L699.55 134.44L699.55 84.44zM786.16 -15.56L829.46 9.44L829.46 59.44L786.16 84.44L742.85 59.44L742.85 9.44zM786.16 434.44L829.46 459.44L829.46 509.44L786.16 534.44L742.85 509.44L742.85 459.44zM872.76 -15.56L916.06 9.44L916.06 59.44L872.76 84.44L829.46 59.44L829.46 9.44zM872.76 284.44L916.06 309.44L916.06 359.44L872.76 384.44L829.46 359.44L829.46 309.44zM1002.67 59.44L1045.97 84.44L1045.97 134.44L1002.67 159.44L959.37 134.44L959.37 84.44zM959.37 134.44L1002.67 159.44L1002.67 209.44L959.37 234.44L916.06 209.44L916.06 159.44zM1002.67 209.44L1045.97 234.44L1045.97 284.44L1002.67 309.44L959.37 284.44L959.37 234.44zM959.37 284.44L1002.67 309.44L1002.67 359.44L959.37 384.44L916.06 359.44L916.06 309.44zM1002.67 359.44L1045.97 384.44L1045.97 434.44L1002.67 459.44L959.37 434.44L959.37 384.44zM1089.27 59.44L1132.58 84.44L1132.58 134.44L1089.27 159.44L1045.97 134.44L1045.97 84.44zM1089.27 209.44L1132.58 234.44L1132.58 284.44L1089.27 309.44L1045.97 284.44L1045.97 234.44zM1045.97 284.44L1089.27 309.44L1089.27 359.44L1045.97 384.44L1002.67 359.44L1002.67 309.44zM1132.58 -15.56L1175.88 9.44L1175.88 59.44L1132.58 84.44L1089.27 59.44L1089.27 9.44zM1175.88 59.44L1219.18 84.44L1219.18 134.44L1175.88 159.44L1132.58 134.44L1132.58 84.44zM1175.88 209.44L1219.18 234.44L1219.18 284.44L1175.88 309.44L1132.58 284.44L1132.58 234.44zM1132.58 434.44L1175.88 459.44L1175.88 509.44L1132.58 534.44L1089.27 509.44L1089.27 459.44zM1219.18 -15.56L1262.48 9.44L1262.48 59.44L1219.18 84.44L1175.88 59.44L1175.88 9.44zM1262.48 59.44L1305.79 84.44L1305.79 134.44L1262.48 159.44L1219.18 134.44L1219.18 84.44zM1219.18 284.44L1262.48 309.44L1262.48 359.44L1219.18 384.44L1175.88 359.44L1175.88 309.44zM1262.48 509.44L1305.79 534.44L1305.79 584.44L1262.48 609.44L1219.18 584.44L1219.18 534.44zM1392.39 -15.56L1435.69 9.44L1435.69 59.44L1392.39 84.44L1349.09 59.44L1349.09 9.44zM1392.39 134.44L1435.69 159.44L1435.69 209.44L1392.39 234.44L1349.09 209.44L1349.09 159.44zM1435.69 359.44L1479 384.44L1479 434.44L1435.69 459.44L1392.39 434.44L1392.39 384.44z" stroke="rgba(255, 218, 165, 0.93)" stroke-width="2"></path></g><defs><mask id="SvgjsMask1020"><rect width="1440" height="560" fill="#ffffff"></rect></mask></defs></svg>