<?xml version="1.0" encoding="UTF-8" standalone="no"?>
<!DOCTYPE svg PUBLIC "-//W3C//DTD SVG 1.1//EN" "http://www.w3.org/Graphics/SVG/1.1/DTD/svg11.dtd">
<svg xmlns="http://www.w3.org/2000/svg" version="1.1" viewBox="0.00 0.00 393.00 300.00">
<g stroke-width="2.00" fill="none" stroke-linecap="butt">
<path stroke="#1b1613" vector-effect="non-scaling-stroke" d="
  M 329.68 12.57
  L 322.30 13.12"
/>
<path stroke="#2d2d2e" vector-effect="non-scaling-stroke" d="
  M 322.30 13.12
  Q 315.05 12.23 299.87 9.86
  C 286.71 7.81 272.43 7.99 258.89 9.14
  Q 249.68 9.93 237.52 13.41
  Q 220.48 18.30 209.30 27.36
  Q 205.11 30.75 202.05 35.08
  A 0.64 0.64 0.0 0 0 202.65 36.08
  Q 212.92 34.85 223.51 33.72
  C 226.11 33.44 228.00 33.08 230.16 34.69
  Q 235.28 38.48 233.35 44.43
  Q 231.93 48.80 228.01 49.32
  Q 215.34 51.00 195.60 52.91
  Q 194.55 53.01 194.50 54.07
  L 194.33 58.27
  Q 194.28 59.38 195.39 59.23
  Q 216.88 56.32 237.89 53.19
  Q 242.66 52.48 248.18 52.15
  Q 253.57 51.83 258.50 51.22
  Q 284.16 48.06 308.93 42.67"
/>
<path stroke="#1b1613" vector-effect="non-scaling-stroke" d="
  M 308.93 42.67
  L 312.36 39.67
  Q 312.72 39.35 313.03 39.73
  Q 315.11 42.33 316.81 40.91"
/>
<path stroke="#60605f" vector-effect="non-scaling-stroke" d="
  M 324.28 51.55
  Q 323.73 50.37 322.89 50.16
  Q 322.28 50.01 322.57 50.57
  Q 323.04 51.49 323.94 52.01"
/>
<path stroke="#201d1c" vector-effect="non-scaling-stroke" d="
  M 314.02 54.28
  Q 313.75 52.25 312.16 51.84
  Q 311.69 51.71 311.52 51.25
  Q 310.64 48.87 310.53 47.00
  Q 310.43 45.21 308.59 44.64"
/>
<path stroke="#2d2d2e" vector-effect="non-scaling-stroke" d="
  M 308.59 44.64
  Q 277.67 51.90 247.64 60.82
  Q 246.96 61.02 246.72 61.69
  C 242.56 73.27 228.78 77.88 217.79 80.45
  Q 208.52 82.61 199.43 83.25
  A 0.72 0.72 0.0 0 0 198.83 84.27
  C 205.41 98.31 215.80 108.77 231.45 112.16
  Q 236.57 113.26 241.15 113.32
  Q 244.71 113.36 250.73 111.50
  Q 253.43 110.67 261.72 109.81"
/>
<path stroke="#201d1c" vector-effect="non-scaling-stroke" d="
  M 261.72 109.81
  Q 266.43 110.48 270.69 112.37
  C 271.86 112.89 273.25 112.49 274.62 112.97
  Q 277.71 114.06 280.53 112.33
  A 0.67 0.66 -29.1 0 0 280.78 111.46
  L 275.59 101.37"
/>
<path stroke="#2d2d2e" vector-effect="non-scaling-stroke" d="
  M 275.59 101.37
  Q 271.13 91.87 266.61 82.68
  Q 265.96 81.36 266.95 80.22
  Q 272.55 73.83 280.85 74.40
  Q 281.33 74.44 281.49 74.89
  L 286.94 89.69"
/>
<path stroke="#201d1c" vector-effect="non-scaling-stroke" d="
  M 286.94 89.69
  L 287.56 93.31
  Q 287.65 93.84 288.02 94.22
  Q 289.00 95.23 289.15 96.57
  Q 289.29 97.73 289.80 98.75
  Q 291.01 101.21 291.83 103.88
  A 0.41 0.41 0.0 0 0 292.51 104.06
  Q 294.72 101.89 297.27 100.84"
/>
<path stroke="#858484" vector-effect="non-scaling-stroke" d="
  M 295.95 102.67
  Q 293.97 103.75 293.08 105.43
  Q 292.83 105.91 293.34 105.73
  Q 295.23 105.07 296.86 103.73"
/>
<path stroke="#1b1613" vector-effect="non-scaling-stroke" d="
  M 295.43 110.88
  Q 295.30 110.86 295.18 110.90
  Q 294.89 111.00 294.87 111.31
  Q 294.81 112.71 293.66 113.84"
/>
<path stroke="#2d2d2e" vector-effect="non-scaling-stroke" d="
  M 293.66 113.84
  L 293.37 112.32
  Q 293.28 111.85 292.85 112.07
  L 287.09 114.95"
/>
<path stroke="#60605f" vector-effect="non-scaling-stroke" d="
  M 287.09 114.95
  L 285.72 115.62"
/>
<path stroke="#2d2d2e" vector-effect="non-scaling-stroke" d="
  M 285.72 115.62
  Q 285.29 115.73 285.05 115.97
  Q 284.67 116.34 284.90 116.82
  L 286.36 119.76"
/>
<path stroke="#1b1613" vector-effect="non-scaling-stroke" d="
  M 286.36 119.76
  Q 286.20 120.77 285.82 120.82"
/>
<path stroke="#2d2d2e" vector-effect="non-scaling-stroke" d="
  M 285.82 120.82
  L 284.09 116.63
  Q 283.98 116.37 283.74 116.50
  L 280.83 118.04
  Q 280.61 118.15 280.74 118.35
  L 290.10 133.04"
/>
<path stroke="#1b1613" vector-effect="non-scaling-stroke" d="
  M 290.10 133.04
  Q 289.54 133.34 289.59 133.83
  Q 289.63 134.27 289.23 134.08
  L 288.58 133.78"
/>
<path stroke="#2d2d2e" vector-effect="non-scaling-stroke" d="
  M 288.58 133.78
  L 278.92 119.94
  Q 278.49 119.33 277.76 119.48
  Q 277.32 119.58 276.96 119.86
  Q 276.41 120.31 276.03 119.70
  C 275.31 118.54 274.79 116.89 273.76 116.01
  Q 267.37 110.57 258.52 111.30
  Q 247.25 112.24 237.73 118.36
  Q 229.66 123.55 222.28 127.26
  C 214.53 131.16 206.96 135.77 198.69 137.38
  C 197.31 137.64 195.29 138.73 194.26 139.69
  A 2.59 2.58 -42.3 0 0 194.08 143.29
  C 198.81 148.67 202.66 153.61 201.86 161.26
  A 1.15 1.11 25.4 0 0 202.21 162.20
  Q 203.19 163.11 204.61 163.37
  C 210.91 164.49 213.84 161.31 218.31 157.97
  C 221.73 155.42 225.77 153.72 229.55 151.79
  C 235.41 148.79 242.62 147.76 248.91 147.17
  Q 260.78 146.05 267.50 138.11
  A 0.36 0.36 0.0 0 1 268.00 138.06
  L 268.26 138.28
  Q 268.61 138.57 268.31 138.90
  C 262.08 145.90 254.74 147.89 245.63 148.59
  A 1.93 1.93 0.0 0 0 244.15 149.47
  Q 238.54 158.22 232.64 170.57
  Q 231.75 172.44 231.63 174.38
  Q 231.12 182.42 232.27 191.07
  Q 232.34 191.61 232.88 191.68
  C 248.85 193.90 264.91 195.03 281.15 193.39
  Q 283.69 193.14 285.61 192.59"
/>
<path stroke="#201d1c" vector-effect="non-scaling-stroke" d="
  M 285.61 192.59
  Q 298.33 191.31 309.83 185.72"
/>
<path stroke="#201d1c" vector-effect="non-scaling-stroke" d="
  M 309.24 196.63
  Q 302.20 200.27 294.80 201.05"
/>
<path stroke="#2d2d2e" vector-effect="non-scaling-stroke" d="
  M 294.80 201.05
  Q 282.46 203.18 270.88 203.61
  Q 270.11 203.64 270.81 203.95
  C 274.86 205.72 278.92 207.63 282.51 210.16
  Q 290.49 215.76 297.15 219.79
  Q 302.26 222.88 308.50 224.42
  Q 309.20 224.59 311.07 225.98"
/>
<path stroke="#201d1c" vector-effect="non-scaling-stroke" d="
  M 311.07 225.98
  L 311.70 226.66
  Q 311.96 226.94 311.61 227.10
  Q 311.47 227.16 311.23 227.13"
/>
<path stroke="#2d2d2e" vector-effect="non-scaling-stroke" d="
  M 311.23 227.13
  Q 309.30 225.96 307.31 225.45
  Q 304.18 224.65 303.30 224.24
  C 294.51 220.21 286.77 214.48 278.79 209.42
  C 275.21 207.15 269.10 203.74 264.64 203.85
  Q 251.31 204.17 238.87 203.76
  Q 236.68 203.69 234.59 204.62
  Q 226.20 208.34 219.16 213.50
  C 218.50 213.98 218.33 214.75 218.53 215.51
  Q 218.66 216.00 218.64 216.50
  C 218.47 219.92 217.67 222.96 218.37 226.48
  Q 218.93 229.30 219.56 231.81"
/>
<path stroke="#201d1c" vector-effect="non-scaling-stroke" d="
  M 219.56 231.81
  Q 220.00 234.17 220.65 236.27
  Q 221.32 238.41 222.69 239.79
  Q 224.32 241.43 225.76 243.18
  A 0.63 0.62 49.1 0 1 225.70 244.04
  Q 225.59 244.14 225.12 244.15"
/>
<path stroke="#858484" vector-effect="non-scaling-stroke" d="
  M 225.12 244.15
  Q 223.28 242.58 221.83 240.36
  Q 221.75 240.23 221.60 240.28
  Q 221.55 240.30 221.51 240.33
  Q 221.32 240.51 221.39 240.76
  Q 222.06 243.02 222.73 245.05
  Q 222.90 245.56 223.43 245.67
  Q 225.00 246.00 226.17 244.98"
/>
<path stroke="#201d1c" vector-effect="non-scaling-stroke" d="
  M 226.17 244.98
  Q 227.39 245.28 228.71 245.48
  Q 230.19 245.71 231.29 245.19
  Q 232.60 244.57 233.61 243.44
  A 0.69 0.69 0.0 0 1 234.36 243.25
  Q 235.29 243.57 234.77 243.95
  Q 234.56 244.10 234.31 244.17
  Q 233.58 244.39 233.53 245.16
  Q 233.49 245.73 234.05 245.84
  Q 234.71 245.98 235.53 245.73"
/>
<path stroke="#1b1613" vector-effect="non-scaling-stroke" d="
  M 198.66 210.96
  Q 201.21 210.17 200.70 208.73"
/>
<path stroke="#60605f" vector-effect="non-scaling-stroke" d="
  M 147.14 182.15
  Q 145.48 182.09 143.83 182.79
  Q 143.32 183.01 143.87 183.08
  Q 145.62 183.31 147.49 182.87"
/>
<path stroke="#1b1613" vector-effect="non-scaling-stroke" d="
  M 176.76 188.86
  Q 179.97 188.52 180.68 189.52"
/>
<path stroke="#392817" vector-effect="non-scaling-stroke" d="
  M 180.68 189.52
  C 173.35 189.57 166.10 189.83 158.81 189.76
  Q 130.64 189.53 101.89 189.76
  Q 97.60 189.80 93.84 189.72
  Q 87.20 189.57 80.92 189.79
  A 2.97 1.99 -0.0 0 1 80.50 189.79
  Q 58.36 189.41 36.00 189.55
  Q 35.45 189.55 35.12 189.80
  Q 34.72 190.11 34.48 190.54"
/>
<path stroke="#1b1613" vector-effect="non-scaling-stroke" d="
  M 34.48 190.54
  L 33.81 193.09"
/>
<path stroke="#414040" vector-effect="non-scaling-stroke" d="
  M 308.59 44.64
  Q 301.74 68.85 286.94 89.69"
/>
<path stroke="#414040" vector-effect="non-scaling-stroke" d="
  M 275.59 101.37
  Q 272.41 103.81 269.00 105.95
  C 266.92 107.26 264.10 108.28 261.72 109.81"
/>
<path stroke="#818283" vector-effect="non-scaling-stroke" d="
  M 311.56 174.36
  Q 311.91 174.11 311.69 173.60
  Q 299.40 145.38 286.98 117.21
  C 286.69 116.56 286.13 116.21 285.72 115.62"
/>
<path stroke="#3c3937" vector-effect="non-scaling-stroke" d="
  M 322.30 13.12
  L 330.99 13.56
  Q 332.66 13.64 331.51 14.86
  Q 321.12 25.86 311.25 37.02
  Q 308.54 40.09 308.93 42.67"
/>
<path stroke="#414040" vector-effect="non-scaling-stroke" d="
  M 304.30 163.17
  Q 302.64 171.11 301.13 174.38
  Q 296.06 185.30 285.61 192.59"
/>
<path stroke="#493420" vector-effect="non-scaling-stroke" d="
  M 189.08 248.93
  Q 178.86 231.45 180.23 210.89
  A 1.22 1.22 0.0 0 0 179.01 209.59
  L 162.67 209.57
  A 0.67 0.66 -4.7 0 0 162.01 210.34
  L 167.70 245.37"
/>
<path stroke="#493420" vector-effect="non-scaling-stroke" d="
  M 34.48 190.54
  L 34.64 206.67
  A 1.08 1.08 0.0 0 0 35.72 207.74
  Q 53.33 207.66 71.66 206.92
  Q 79.71 206.59 88.20 206.99
  Q 97.21 207.41 104.34 207.34
  Q 124.62 207.13 142.49 207.30
  Q 150.08 207.37 158.91 207.01
  Q 167.27 206.66 175.70 206.96
  C 186.84 207.37 193.64 200.70 199.24 191.89
  Q 199.62 191.31 199.62 190.63
  Q 199.62 189.52 198.50 189.52
  L 180.68 189.52"
/>
<path stroke="#747371" vector-effect="non-scaling-stroke" d="
  M 316.87 216.13
  Q 317.08 220.53 318.78 224.46"
/>
<path stroke="#999796" vector-effect="non-scaling-stroke" d="
  M 226.17 244.98
  Q 225.83 244.54 225.12 244.15"
/>
<path stroke="#414040" vector-effect="non-scaling-stroke" d="
  M 219.56 231.81
  Q 231.01 238.55 242.26 241.22
  C 259.06 245.22 278.32 245.78 294.82 241.16
  Q 304.30 238.51 309.57 232.81
  Q 311.95 230.24 311.23 227.13"
/>
<path stroke="#414040" vector-effect="non-scaling-stroke" d="
  M 311.07 225.98
  Q 311.20 225.89 311.36 225.86
  Q 311.61 225.83 311.54 225.59
  Q 309.95 219.86 307.93 216.28
  Q 303.11 207.74 294.80 201.05"
/>
<path stroke="#818283" vector-effect="non-scaling-stroke" d="
  M 344.13 244.25
  L 287.09 114.95"
/>
<path stroke="#2f2925" vector-effect="non-scaling-stroke" d="
  M 310.79 177.50
  L 310.92 177.04
  Q 311.03 176.65 310.85 176.29
  L 304.30 163.17"
/>
<path stroke="#3c3937" vector-effect="non-scaling-stroke" d="
  M 304.30 163.17
  Q 303.12 159.06 301.28 155.74
  C 298.79 151.25 296.68 146.55 294.25 142.65
  Q 291.48 138.19 288.58 133.78"
/>
<path stroke="#3c3937" vector-effect="non-scaling-stroke" d="
  M 290.10 133.04
  L 291.27 134.98
  A 0.26 0.26 0.0 0 0 291.62 135.07
  L 291.90 134.89
  A 0.29 0.29 0.0 0 0 292.00 134.53
  L 285.82 120.82"
/>
<path stroke="#3c3937" vector-effect="non-scaling-stroke" d="
  M 286.36 119.76
  Q 290.69 128.62 294.43 137.68
  Q 297.77 145.80 301.33 153.50
  Q 301.94 154.81 302.75 155.77
  Q 303.07 156.16 303.15 156.67
  Q 303.43 158.49 304.34 159.79
  C 305.55 161.52 306.11 163.58 307.23 165.36
  Q 307.35 165.53 307.37 165.73
  Q 307.39 165.99 307.36 166.26
  A 1.39 1.36 34.0 0 0 307.53 167.09
  L 311.56 174.36"
/>
<path stroke="#6f6c67" vector-effect="non-scaling-stroke" d="
  M 311.56 174.36
  Q 311.86 174.33 312.11 174.91
  Q 320.55 194.21 339.42 236.58
  Q 341.80 241.91 344.13 244.25"
/>
<path stroke="#3c3937" vector-effect="non-scaling-stroke" d="
  M 344.13 244.25
  Q 345.79 246.61 348.99 246.88
  A 1.29 1.28 83.5 0 0 350.32 245.20
  Q 348.86 240.71 347.00 236.42
  C 345.82 233.70 344.30 231.09 343.21 228.33
  Q 340.98 222.76 340.96 222.71
  Q 317.21 168.31 293.66 113.84"
/>
<path stroke="#755e1e" vector-effect="non-scaling-stroke" d="
  M 222.25 49.20
  C 226.94 48.75 231.91 48.69 232.72 42.70
  C 233.28 38.59 230.22 34.03 225.65 34.42
  Q 223.75 34.59 221.91 34.85
  C 215.29 35.81 208.62 36.54 202.03 37.23
  C 197.64 37.69 195.36 47.79 195.00 51.24
  A 0.64 0.64 0.0 0 0 195.71 51.95
  Q 207.76 50.58 222.25 49.20"
/>
<path stroke="#77685b" vector-effect="non-scaling-stroke" d="
  M 194.69 61.17
  C 194.36 68.01 194.98 74.66 197.84 81.19
  A 1.48 1.47 -13.4 0 0 199.28 82.07
  C 213.58 81.11 249.78 75.45 245.64 53.79
  A 0.55 0.54 -8.8 0 0 245.03 53.35
  L 195.45 60.34
  Q 194.73 60.44 194.69 61.17"
/>
<path stroke="#2d2d2e" vector-effect="non-scaling-stroke" d="
  M 270.85 85.76
  L 281.36 80.82
  A 1.74 1.74 0.0 0 0 282.20 78.50
  L 281.15 76.27
  A 7.29 3.15 -25.2 0 0 273.21 76.52
  L 272.74 76.74
  A 7.29 3.15 -25.2 0 0 267.48 82.70
  L 268.53 84.93
  A 1.74 1.74 0.0 0 0 270.85 85.76"
/>
<path stroke="#60605f" vector-effect="non-scaling-stroke" d="
  M 273.28 85.53
  Q 272.36 85.57 271.74 86.03
  Q 271.26 86.40 271.85 86.53
  Q 272.81 86.76 273.97 86.28"
/>
<path stroke="#858484" vector-effect="non-scaling-stroke" d="
  M 273.97 86.28
  L 282.64 83.54
  Q 283.60 83.23 283.22 82.30
  L 283.01 81.75
  Q 282.67 80.91 281.93 81.43
  Q 278.13 84.07 273.28 85.53"
/>
<path stroke="#dadad9" vector-effect="non-scaling-stroke" d="
  M 273.97 86.28
  Q 273.30 86.40 273.28 85.53"
/>
<path stroke="#858484" vector-effect="non-scaling-stroke" d="
  M 272.78 90.85
  Q 272.46 90.76 272.69 91.12
  A 0.33 0.32 64.3 0 0 273.07 91.26
  L 284.26 87.51
  Q 284.82 87.32 284.65 86.76
  L 283.99 84.54
  A 0.39 0.39 0.0 0 0 283.41 84.32
  L 273.01 90.82
  Q 272.90 90.89 272.78 90.85"
/>
<path stroke="#858484" vector-effect="non-scaling-stroke" d="
  M 277.36 86.38
  C 275.05 87.04 272.91 87.70 270.63 87.47
  Q 269.83 87.39 270.22 88.09
  L 271.21 89.92
  Q 271.50 90.44 272.02 90.14
  L 277.49 87.00
  Q 277.64 86.92 277.65 86.85
  Q 277.68 86.71 277.65 86.57
  Q 277.61 86.31 277.36 86.38"
/>
<path stroke="#858484" vector-effect="non-scaling-stroke" d="
  M 286.62 91.45
  L 285.00 88.48
  A 0.24 0.24 0.0 0 0 284.68 88.38
  L 284.55 88.45
  A 12.81 1.92 -28.5 0 0 274.21 96.25
  L 274.21 96.27
  A 12.81 1.92 -28.5 0 0 286.39 91.84
  L 286.52 91.77
  A 0.24 0.24 0.0 0 0 286.62 91.45"
/>
<path stroke="#858484" vector-effect="non-scaling-stroke" d="
  M 278.72 90.62
  L 278.58 90.39
  Q 278.54 90.31 278.46 90.35
  Q 275.80 91.61 273.02 92.13
  Q 272.47 92.24 272.63 92.77
  L 273.02 94.13
  Q 273.19 94.71 273.69 94.38
  L 278.60 91.12
  Q 278.89 90.93 278.72 90.62"
/>
<path stroke="#858484" vector-effect="non-scaling-stroke" d="
  M 275.80 99.30
  L 276.06 100.05
  Q 276.29 100.68 276.82 100.28
  Q 281.61 96.76 286.81 93.92
  A 0.32 0.31 -22.3 0 0 286.96 93.57
  L 286.89 93.26
  A 0.30 0.30 0.0 0 0 286.45 93.07
  Q 281.33 96.01 275.35 97.44
  Q 274.55 97.64 275.10 98.25
  L 275.30 98.47
  Q 275.63 98.84 275.80 99.30"
/>
<path stroke="#858484" vector-effect="non-scaling-stroke" d="
  M 288.57 97.04
  L 287.33 94.94
  A 0.19 0.19 0.0 0 0 287.07 94.88
  L 286.92 94.96
  A 12.12 0.77 -30.6 0 0 276.88 101.80
  L 277.53 102.90
  A 12.12 0.77 -30.6 0 0 288.36 97.39
  L 288.51 97.30
  A 0.19 0.19 0.0 0 0 288.57 97.04"
/>
<path stroke="#60605f" vector-effect="non-scaling-stroke" d="
  M 51.90 117.49
  C 50.11 112.05 47.55 103.31 44.84 96.42
  Q 44.14 94.64 43.06 96.22
  L 42.38 97.21
  Q 41.10 99.07 41.81 101.21
  L 69.03 184.26
  Q 69.37 185.32 70.24 184.62
  Q 71.19 183.85 72.33 183.41
  Q 73.25 183.06 72.95 182.11
  C 65.97 160.67 59.10 139.32 51.90 117.49"
/>
<path stroke="#858484" vector-effect="non-scaling-stroke" d="
  M 289.37 100.08
  L 288.91 99.01
  A 0.26 0.26 0.0 0 0 288.57 98.88
  L 288.38 98.96
  A 11.43 0.73 -23.4 0 0 278.18 104.17
  L 278.26 104.37
  A 11.43 0.73 -23.4 0 0 289.04 100.50
  L 289.24 100.42
  A 0.26 0.26 0.0 0 0 289.37 100.08"
/>
<path stroke="#858484" vector-effect="non-scaling-stroke" d="
  M 279.16 106.00
  L 279.33 106.72
  Q 279.53 107.55 280.26 107.12
  Q 284.90 104.46 290.04 103.07
  Q 290.32 103.00 290.25 102.71
  L 290.06 101.95
  Q 289.98 101.66 289.70 101.75
  L 279.73 104.97
  Q 278.97 105.22 279.16 106.00"
/>
<path stroke="#858484" vector-effect="non-scaling-stroke" d="
  M 288.65 104.54
  Q 284.42 106.04 280.53 108.08
  Q 280.12 108.29 280.33 108.69
  L 281.12 110.19
  Q 281.33 110.58 281.68 110.32
  L 289.17 104.89
  Q 289.48 104.66 289.48 104.64
  Q 289.51 104.41 289.32 104.41
  Q 288.98 104.43 288.65 104.54"
/>
<path stroke="#2d2d2e" vector-effect="non-scaling-stroke" d="
  M 297.9362 105.1937
  A 0.62 0.62 0.0 0 0 297.1052 104.9140
  L 275.5185 115.6297
  A 0.62 0.62 0.0 0 0 275.2389 116.4608
  L 276.3238 118.6463
  A 0.62 0.62 0.0 0 0 277.1548 118.9260
  L 298.7415 108.2103
  A 0.62 0.62 0.0 0 0 299.0211 107.3792
  L 297.9362 105.1937"
/>
<path stroke="#858484" vector-effect="non-scaling-stroke" d="
  M 282.53 111.24
  L 282.53 111.24
  Q 282.58 111.32 282.67 111.28
  Q 287.03 108.92 291.27 106.65
  Q 291.58 106.49 291.48 106.16
  L 291.23 105.25
  Q 291.14 104.93 290.85 105.11
  Q 286.51 107.78 282.56 110.98
  Q 282.42 111.09 282.53 111.24"
/>
<path stroke="#2d2d2e" vector-effect="non-scaling-stroke" d="
  M 275.30 114.26
  Q 274.17 113.51 272.99 113.55
  Q 272.33 113.58 272.78 114.06
  Q 273.60 114.93 274.62 115.37
  A 0.16 0.16 0.0 0 0 274.83 115.28
  Q 274.98 114.89 275.32 114.62
  A 0.23 0.22 42.2 0 0 275.30 114.26"
/>
<path stroke="#2d2d2e" vector-effect="non-scaling-stroke" d="
  M 189.14 136.87
  Q 188.61 137.75 189.64 137.80
  Q 191.43 137.89 192.53 139.43
  Q 192.83 139.85 193.12 139.42
  C 194.79 136.90 199.41 136.02 202.22 135.25
  Q 206.80 134.00 212.41 131.16
  Q 226.81 123.85 241.77 114.75
  Q 242.47 114.33 241.66 114.27
  C 238.61 114.06 236.53 114.17 233.63 115.57
  Q 229.68 117.48 226.34 119.80
  Q 221.09 123.43 219.24 124.39
  Q 209.94 129.23 199.27 132.85
  C 195.86 134.01 191.30 133.26 189.14 136.87"
/>
<path stroke="#858484" vector-effect="non-scaling-stroke" d="
  M 191.36 143.50
  L 192.01 143.25
  Q 192.59 143.03 192.44 142.42
  Q 192.01 140.64 190.93 139.49
  Q 190.20 138.71 189.24 139.17
  L 187.28 140.12
  Q 186.43 140.54 187.20 141.08
  L 190.51 143.39
  A 0.93 0.91 51.9 0 0 191.36 143.50"
/>
<path stroke="#858484" vector-effect="non-scaling-stroke" d="
  M 189.37 144.39
  A 0.34 0.34 0.0 0 0 189.43 143.80
  L 185.70 141.30
  A 0.34 0.34 0.0 0 0 185.34 141.29
  L 182.41 143.00
  A 0.34 0.34 0.0 0 0 182.29 143.47
  L 184.02 146.30
  A 0.34 0.34 0.0 0 0 184.44 146.44
  L 189.37 144.39"
/>
<path stroke="#858484" vector-effect="non-scaling-stroke" d="
  M 182.85 147.03
  A 0.35 0.35 0.0 0 0 183.00 146.51
  L 181.31 143.94
  A 0.35 0.35 0.0 0 0 180.84 143.82
  L 177.01 146.02
  A 0.35 0.35 0.0 0 0 176.86 146.45
  L 177.84 148.85
  A 0.35 0.35 0.0 0 0 178.31 149.03
  L 182.85 147.03"
/>
<path stroke="#60605f" vector-effect="non-scaling-stroke" d="
  M 193.58 156.67
  L 196.21 162.26
  Q 196.52 162.91 197.24 162.90
  Q 198.76 162.87 200.30 162.25
  Q 200.96 161.98 200.92 161.26
  L 200.67 156.69"
/>
<path stroke="#858484" vector-effect="non-scaling-stroke" d="
  M 200.67 156.69
  Q 198.58 149.55 193.14 144.26
  Q 192.95 144.08 192.71 144.18
  L 187.30 146.49
  Q 187.03 146.61 187.19 146.86
  L 193.58 156.67"
/>
<path stroke="#dadad9" vector-effect="non-scaling-stroke" d="
  M 200.67 156.69
  Q 200.76 158.09 200.25 158.29
  A 0.64 0.64 0.0 0 1 199.39 157.56
  Q 199.63 156.43 199.49 156.19
  A 2.26 2.25 -28.8 0 0 196.57 155.35
  Q 195.08 156.08 193.58 156.67"
/>
<path stroke="#858484" vector-effect="non-scaling-stroke" d="
  M 175.9611 147.0480
  A 0.52 0.52 0.0 0 0 175.2683 146.8014
  L 173.2448 147.7622
  A 0.52 0.52 0.0 0 0 172.9981 148.4550
  L 173.8989 150.3520
  A 0.52 0.52 0.0 0 0 174.5917 150.5986
  L 176.6152 149.6378
  A 0.52 0.52 0.0 0 0 176.8619 148.9450
  L 175.9611 147.0480"
/>
<path stroke="#858484" vector-effect="non-scaling-stroke" d="
  M 188.34 163.89
  Q 188.66 164.90 189.68 164.69
  L 194.40 163.73
  Q 195.52 163.50 195.07 162.44
  Q 191.73 154.57 186.18 147.21
  Q 186.02 146.99 185.77 147.10
  L 180.37 149.38
  A 0.18 0.18 0.0 0 0 180.30 149.67
  Q 185.84 155.79 188.34 163.89"
/>
<path stroke="#858484" vector-effect="non-scaling-stroke" d="
  M 165.11 151.54
  A 0.31 0.31 0.0 0 0 165.05 152.06
  L 167.06 153.60
  A 0.31 0.31 0.0 0 0 167.38 153.63
  L 172.79 151.19
  A 0.31 0.31 0.0 0 0 172.95 150.78
  L 172.00 148.74
  A 0.31 0.31 0.0 0 0 171.59 148.59
  L 165.11 151.54"
/>
<path stroke="#60605f" vector-effect="non-scaling-stroke" d="
  M 179.09 160.98
  L 180.94 166.56
  A 0.48 0.47 74.1 0 0 181.49 166.87
  L 187.04 165.58
  Q 187.47 165.48 187.33 165.06
  L 185.25 159.03"
/>
<path stroke="#858484" vector-effect="non-scaling-stroke" d="
  M 185.25 159.03
  Q 183.12 154.18 179.52 150.39
  Q 179.05 149.89 178.42 150.17
  L 176.35 151.09
  Q 175.62 151.41 175.89 152.15
  L 179.09 160.98"
/>
<path stroke="#dadad9" vector-effect="non-scaling-stroke" d="
  M 185.25 159.03
  Q 181.94 159.19 179.09 160.98"
/>
<path stroke="#2d2d2e" vector-effect="non-scaling-stroke" d="
  M 234.76 151.84
  L 234.16 155.48
  Q 233.73 158.02 234.96 155.76
  L 237.84 150.48
  A 0.24 0.23 18.2 0 0 237.66 150.14
  Q 236.65 150.02 235.61 150.61
  Q 234.90 151.02 234.76 151.84"
/>
<path stroke="#60605f" vector-effect="non-scaling-stroke" d="
  M 172.54 163.38
  L 172.18 167.86
  Q 172.06 169.42 173.53 168.89
  Q 175.93 168.03 178.54 167.64
  Q 180.14 167.41 179.61 165.88
  L 178.01 161.22"
/>
<path stroke="#858484" vector-effect="non-scaling-stroke" d="
  M 178.01 161.22
  L 174.94 152.54
  Q 174.66 151.74 173.89 152.08
  L 172.74 152.58
  Q 172.09 152.87 172.12 153.57
  L 172.54 163.38"
/>
<path stroke="#dadad9" vector-effect="non-scaling-stroke" d="
  M 178.01 161.22
  Q 175.38 163.34 172.54 163.38"
/>
<path stroke="#858484" vector-effect="non-scaling-stroke" d="
  M 165.75 154.47
  A 0.43 0.43 0.0 0 0 165.78 153.72
  L 163.63 152.37
  A 0.43 0.43 0.0 0 0 163.24 152.33
  L 158.32 154.32
  A 0.43 0.43 0.0 0 0 158.14 154.99
  L 159.91 157.12
  A 0.43 0.43 0.0 0 0 160.44 157.23
  L 165.75 154.47"
/>
<path stroke="#858484" vector-effect="non-scaling-stroke" d="
  M 163.42 157.34
  Q 167.45 163.51 168.68 169.26
  A 0.92 0.91 -32.8 0 0 170.31 169.61
  Q 170.96 168.73 171.08 167.50
  Q 171.79 160.11 171.10 153.49
  Q 171.08 153.30 170.90 153.38
  L 163.57 156.80
  Q 163.18 156.98 163.42 157.34"
/>
<path stroke="#858484" vector-effect="non-scaling-stroke" d="
  M 155.11 156.02
  Q 154.74 156.09 154.48 156.36
  Q 154.06 156.78 154.61 157.01
  Q 155.88 157.53 156.73 158.65
  A 0.73 0.73 0.0 0 0 157.73 158.82
  L 158.72 158.13
  Q 159.21 157.79 158.82 157.35
  L 157.28 155.56
  Q 156.94 155.17 156.43 155.27
  Q 155.97 155.36 155.63 155.73
  Q 155.42 155.96 155.11 156.02"
/>
<path stroke="#2d2d2e" vector-effect="non-scaling-stroke" d="
  M 142.92 170.20
  Q 143.21 170.32 143.45 170.12
  L 155.95 159.98
  Q 156.45 159.57 155.89 159.25
  Q 155.00 158.75 154.31 157.95
  A 1.18 1.16 66.4 0 0 153.31 157.55
  C 151.56 157.71 150.71 158.86 149.52 159.97
  Q 144.72 164.41 140.25 168.77
  Q 139.98 169.03 140.33 169.17
  L 142.92 170.20"
/>
<path stroke="#858484" vector-effect="non-scaling-stroke" d="
  M 167.29 168.65
  Q 166.12 163.12 162.60 158.05
  Q 162.28 157.58 161.79 157.86
  L 158.61 159.64
  Q 157.99 159.99 158.62 160.30
  Q 164.65 163.31 163.61 170.95
  A 0.33 0.33 0.0 0 0 164.03 171.31
  L 166.99 170.48
  Q 167.45 170.35 167.44 169.88
  Q 167.42 169.26 167.29 168.65"
/>
<path stroke="#2d2d2e" vector-effect="non-scaling-stroke" d="
  M 161.56 172.43
  Q 162.26 172.18 162.38 171.44
  Q 163.68 163.68 157.36 160.67
  Q 156.94 160.46 156.57 160.76
  L 145.67 169.72
  Q 144.92 170.34 145.87 170.56
  C 148.98 171.26 151.92 173.96 153.59 176.58
  A 0.88 0.87 50.7 0 0 154.96 176.72
  Q 157.80 173.78 161.56 172.43"
/>
<path stroke="#77685b" vector-effect="non-scaling-stroke" d="
  M 125.90 183.14
  Q 127.63 183.42 128.96 182.34
  Q 134.23 178.05 141.63 171.86
  Q 142.85 170.84 141.28 170.63
  L 140.16 170.49
  A 2.87 2.86 27.1 0 0 137.79 171.25
  L 125.73 182.60
  Q 125.26 183.04 125.90 183.14"
/>
<path stroke="#77685b" vector-effect="non-scaling-stroke" d="
  M 146.84 175.39
  C 143.82 178.24 140.34 180.28 136.94 182.49
  Q 136.25 182.93 137.07 182.86
  Q 144.69 182.15 151.83 179.26
  Q 153.82 178.46 152.55 176.73
  Q 149.40 172.46 144.84 171.36
  A 1.53 1.51 -57.9 0 0 143.51 171.67
  L 130.18 182.72
  A 0.25 0.25 0.0 0 0 130.35 183.17
  C 132.62 183.11 134.22 182.99 136.34 181.81
  Q 141.82 178.74 146.74 175.26
  Q 147.67 174.61 146.84 175.39"
/>
<path stroke="#60605f" vector-effect="non-scaling-stroke" d="
  M 171.29 186.76
  Q 171.92 186.21 172.25 185.42
  Q 172.81 184.11 171.38 184.08
  Q 161.29 183.90 149.75 184.03
  Q 145.47 184.08 141.51 184.13
  Q 133.81 184.23 125.82 184.02
  Q 117.96 183.81 110.16 183.88
  Q 92.34 184.04 76.08 183.90
  Q 73.14 183.87 70.84 185.24
  A 1.13 1.13 0.0 0 0 70.79 187.15
  Q 72.19 188.08 73.88 188.10
  Q 114.00 188.52 167.36 188.25
  A 6.02 5.99 -65.6 0 0 171.29 186.76"
/>
<path stroke="#2d2d2e" vector-effect="non-scaling-stroke" d="
  M 214.13 207.87
  Q 216.59 209.69 218.30 212.13
  A 0.60 0.59 54.4 0 0 219.14 212.27
  Q 225.91 207.25 233.89 203.63
  A 0.61 0.61 0.0 0 0 234.21 202.87
  Q 232.52 198.09 231.64 192.95
  A 0.54 0.54 0.0 0 0 230.90 192.54
  C 224.99 194.93 219.49 200.24 215.32 204.91
  Q 214.58 205.74 213.49 206.11
  A 0.79 0.78 -29.1 0 0 213.13 207.35
  Q 213.54 207.85 214.13 207.87"
/>
<path stroke="#60605f" vector-effect="non-scaling-stroke" d="
  M 215.69 237.92
  Q 215.78 239.00 216.50 239.78
  Q 216.90 240.21 216.79 239.63
  L 216.40 237.56"
/>
<path stroke="#858484" vector-effect="non-scaling-stroke" d="
  M 216.40 237.56
  Q 214.60 229.67 216.56 222.21
  Q 217.31 219.35 217.40 216.90
  Q 217.44 215.66 216.63 216.60
  L 213.83 219.83
  A 1.68 1.67 -22.7 0 0 213.43 220.80
  Q 212.76 229.50 215.69 237.92"
/>
<path stroke="#dadad9" vector-effect="non-scaling-stroke" d="
  M 216.40 237.56
  Q 215.99 237.91 215.69 237.92"
/>
<path stroke="#60605f" vector-effect="non-scaling-stroke" d="
  M 213.08 241.64
  Q 213.20 241.62 213.17 241.50
  Q 211.07 233.11 211.78 224.32
  Q 211.80 224.03 211.64 223.80
  Q 211.28 223.29 211.11 223.89
  Q 208.50 232.84 212.66 241.61
  Q 212.71 241.72 212.82 241.69
  L 213.08 241.64"
/>
<path stroke="#858484" vector-effect="non-scaling-stroke" d="
  M 219.14 245.68
  L 220.71 245.41
  A 0.27 0.27 0.0 0 0 220.93 245.09
  L 220.90 244.92
  A 18.95 1.04 80.3 0 0 216.69 226.41
  L 216.63 226.42
  A 18.95 1.04 80.3 0 0 218.79 245.28
  L 218.82 245.46
  A 0.27 0.27 0.0 0 0 219.14 245.68"
/>
<path stroke="#858484" vector-effect="non-scaling-stroke" d="
  M 214.34 237.23
  Q 212.49 230.14 213.46 237.40
  Q 213.90 240.65 215.03 244.03
  A 0.83 0.82 -1.3 0 0 215.58 244.55
  L 216.23 244.73
  Q 217.01 244.95 216.69 244.20
  Q 215.34 241.03 214.34 237.23"
/>
<path stroke="#77685b" vector-effect="non-scaling-stroke" d="
  M 205.45 65.26
  Q 212.86 62.73 219.41 60.71
  Q 221.44 60.08 219.37 59.58
  Q 214.99 58.53 210.46 60.67
  Q 203.06 64.17 198.16 67.50
  Q 193.59 70.61 198.61 68.30
  C 200.88 67.25 203.05 66.08 205.45 65.26"
/>
<path stroke="#867464" vector-effect="non-scaling-stroke" d="
  M 204.4282 79.0900
  A 6.25 3.78 90.2 0 0 208.2300 72.8532
  A 6.25 3.78 90.2 0 0 204.4718 66.5900
  A 6.25 3.78 90.2 0 0 200.6700 72.8268
  A 6.25 3.78 90.2 0 0 204.4282 79.0900"
/>
<path stroke="#dadad9" vector-effect="non-scaling-stroke" d="
  M 280.67 87.15
  Q 280.19 87.57 280.83 87.59
  Q 281.93 87.62 282.54 86.82
  Q 282.96 86.26 282.27 86.38
  Q 281.41 86.53 280.67 87.15"
/>
<path stroke="#dadad9" vector-effect="non-scaling-stroke" d="
  M 187.63 159.37
  Q 188.24 161.04 189.22 162.62
  Q 189.49 163.05 189.97 163.19
  Q 191.84 163.70 192.72 162.31
  Q 193.32 161.34 192.84 160.23
  Q 192.30 158.99 191.81 157.77
  A 1.13 1.11 71.7 0 0 190.50 157.10
  L 187.81 157.78
  A 0.86 0.85 85.6 0 0 187.18 158.52
  Q 187.10 159.30 187.63 159.37"
/>
<path stroke="#493420" vector-effect="non-scaling-stroke" d="
  M 69.69 253.24
  L 76.78 210.51
  Q 76.93 209.62 76.02 209.61
  L 59.55 209.54
  A 0.91 0.90 88.5 0 0 58.64 210.51
  Q 60.15 234.02 47.51 253.56
  A 0.56 0.56 0.0 0 0 48.00 254.42
  Q 57.49 254.05 68.11 254.52
  A 1.53 1.53 0.0 0 0 69.69 253.24"
/>
</g>
<path fill="#0b0a0a" d="
  M 329.68 12.57
  L 322.30 13.12
  Q 315.05 12.23 299.87 9.86
  C 286.71 7.81 272.43 7.99 258.89 9.14
  Q 249.68 9.93 237.52 13.41
  Q 220.48 18.30 209.30 27.36
  Q 205.11 30.75 202.05 35.08
  A 0.64 0.64 0.0 0 0 202.65 36.08
  Q 212.92 34.85 223.51 33.72
  C 226.11 33.44 228.00 33.08 230.16 34.69
  Q 235.28 38.48 233.35 44.43
  Q 231.93 48.80 228.01 49.32
  Q 215.34 51.00 195.60 52.91
  Q 194.55 53.01 194.50 54.07
  L 194.33 58.27
  Q 194.28 59.38 195.39 59.23
  Q 216.88 56.32 237.89 53.19
  Q 242.66 52.48 248.18 52.15
  Q 253.57 51.83 258.50 51.22
  Q 284.16 48.06 308.93 42.67
  L 312.36 39.67
  Q 312.72 39.35 313.03 39.73
  Q 315.11 42.33 316.81 40.91
  Q 331.77 46.26 343.52 52.96
  C 351.18 57.33 357.68 65.39 360.51 73.75
  Q 366.06 90.09 358.35 106.15
  C 356.74 109.51 354.52 112.66 353.82 116.47
  Q 352.65 122.73 350.69 127.47
  Q 346.29 138.13 341.95 149.50
  Q 339.34 156.31 337.69 163.61
  Q 337.62 163.91 337.42 164.10
  Q 337.20 164.32 336.84 164.08
  A 0.49 0.47 -73.7 0 1 336.63 163.68
  Q 336.74 150.40 334.85 138.96
  A 1.22 1.22 0.0 0 1 335.14 137.94
  Q 345.18 126.52 352.90 114.17
  A 5.18 5.15 65.4 0 0 353.62 112.22
  Q 356.03 97.20 352.38 82.30
  Q 350.57 74.92 346.86 70.81
  C 340.44 63.69 332.39 57.12 324.28 51.55
  Q 323.73 50.37 322.89 50.16
  Q 322.28 50.01 322.57 50.57
  Q 323.04 51.49 323.94 52.01
  Q 335.52 67.51 339.22 74.25
  C 347.88 90.02 345.58 108.10 336.23 122.80
  C 329.50 133.38 323.48 144.07 319.47 155.82
  Q 319.13 156.84 319.10 155.76
  L 318.41 126.56
  Q 318.40 125.94 318.73 125.42
  Q 323.63 117.68 328.67 110.25
  C 331.38 106.24 332.08 100.78 332.33 95.92
  Q 333.04 82.50 326.53 72.11
  C 322.74 66.07 318.61 59.91 314.02 54.28
  Q 313.75 52.25 312.16 51.84
  Q 311.69 51.71 311.52 51.25
  Q 310.64 48.87 310.53 47.00
  Q 310.43 45.21 308.59 44.64
  Q 277.67 51.90 247.64 60.82
  Q 246.96 61.02 246.72 61.69
  C 242.56 73.27 228.78 77.88 217.79 80.45
  Q 208.52 82.61 199.43 83.25
  A 0.72 0.72 0.0 0 0 198.83 84.27
  C 205.41 98.31 215.80 108.77 231.45 112.16
  Q 236.57 113.26 241.15 113.32
  Q 244.71 113.36 250.73 111.50
  Q 253.43 110.67 261.72 109.81
  Q 266.43 110.48 270.69 112.37
  C 271.86 112.89 273.25 112.49 274.62 112.97
  Q 277.71 114.06 280.53 112.33
  A 0.67 0.66 -29.1 0 0 280.78 111.46
  L 275.59 101.37
  Q 271.13 91.87 266.61 82.68
  Q 265.96 81.36 266.95 80.22
  Q 272.55 73.83 280.85 74.40
  Q 281.33 74.44 281.49 74.89
  L 286.94 89.69
  L 287.56 93.31
  Q 287.65 93.84 288.02 94.22
  Q 289.00 95.23 289.15 96.57
  Q 289.29 97.73 289.80 98.75
  Q 291.01 101.21 291.83 103.88
  A 0.41 0.41 0.0 0 0 292.51 104.06
  Q 294.72 101.89 297.27 100.84
  L 295.95 102.67
  Q 293.97 103.75 293.08 105.43
  Q 292.83 105.91 293.34 105.73
  Q 295.23 105.07 296.86 103.73
  Q 297.17 103.63 297.55 103.68
  Q 298.09 103.75 298.33 104.23
  L 300.10 107.68
  Q 300.40 108.25 299.83 108.55
  L 295.43 110.88
  Q 295.30 110.86 295.18 110.90
  Q 294.89 111.00 294.87 111.31
  Q 294.81 112.71 293.66 113.84
  L 293.37 112.32
  Q 293.28 111.85 292.85 112.07
  L 287.09 114.95
  L 285.72 115.62
  Q 285.29 115.73 285.05 115.97
  Q 284.67 116.34 284.90 116.82
  L 286.36 119.76
  Q 286.20 120.77 285.82 120.82
  L 284.09 116.63
  Q 283.98 116.37 283.74 116.50
  L 280.83 118.04
  Q 280.61 118.15 280.74 118.35
  L 290.10 133.04
  Q 289.54 133.34 289.59 133.83
  Q 289.63 134.27 289.23 134.08
  L 288.58 133.78
  L 278.92 119.94
  Q 278.49 119.33 277.76 119.48
  Q 277.32 119.58 276.96 119.86
  Q 276.41 120.31 276.03 119.70
  C 275.31 118.54 274.79 116.89 273.76 116.01
  Q 267.37 110.57 258.52 111.30
  Q 247.25 112.24 237.73 118.36
  Q 229.66 123.55 222.28 127.26
  C 214.53 131.16 206.96 135.77 198.69 137.38
  C 197.31 137.64 195.29 138.73 194.26 139.69
  A 2.59 2.58 -42.3 0 0 194.08 143.29
  C 198.81 148.67 202.66 153.61 201.86 161.26
  A 1.15 1.11 25.4 0 0 202.21 162.20
  Q 203.19 163.11 204.61 163.37
  C 210.91 164.49 213.84 161.31 218.31 157.97
  C 221.73 155.42 225.77 153.72 229.55 151.79
  C 235.41 148.79 242.62 147.76 248.91 147.17
  Q 260.78 146.05 267.50 138.11
  A 0.36 0.36 0.0 0 1 268.00 138.06
  L 268.26 138.28
  Q 268.61 138.57 268.31 138.90
  C 262.08 145.90 254.74 147.89 245.63 148.59
  A 1.93 1.93 0.0 0 0 244.15 149.47
  Q 238.54 158.22 232.64 170.57
  Q 231.75 172.44 231.63 174.38
  Q 231.12 182.42 232.27 191.07
  Q 232.34 191.61 232.88 191.68
  C 248.85 193.90 264.91 195.03 281.15 193.39
  Q 283.69 193.14 285.61 192.59
  Q 298.33 191.31 309.83 185.72
  Q 308.61 191.77 309.24 196.63
  Q 302.20 200.27 294.80 201.05
  Q 282.46 203.18 270.88 203.61
  Q 270.11 203.64 270.81 203.95
  C 274.86 205.72 278.92 207.63 282.51 210.16
  Q 290.49 215.76 297.15 219.79
  Q 302.26 222.88 308.50 224.42
  Q 309.20 224.59 311.07 225.98
  L 311.70 226.66
  Q 311.96 226.94 311.61 227.10
  Q 311.47 227.16 311.23 227.13
  Q 309.30 225.96 307.31 225.45
  Q 304.18 224.65 303.30 224.24
  C 294.51 220.21 286.77 214.48 278.79 209.42
  C 275.21 207.15 269.10 203.74 264.64 203.85
  Q 251.31 204.17 238.87 203.76
  Q 236.68 203.69 234.59 204.62
  Q 226.20 208.34 219.16 213.50
  C 218.50 213.98 218.33 214.75 218.53 215.51
  Q 218.66 216.00 218.64 216.50
  C 218.47 219.92 217.67 222.96 218.37 226.48
  Q 218.93 229.30 219.56 231.81
  Q 220.00 234.17 220.65 236.27
  Q 221.32 238.41 222.69 239.79
  Q 224.32 241.43 225.76 243.18
  A 0.63 0.62 49.1 0 1 225.70 244.04
  Q 225.59 244.14 225.12 244.15
  Q 223.28 242.58 221.83 240.36
  Q 221.75 240.23 221.60 240.28
  Q 221.55 240.30 221.51 240.33
  Q 221.32 240.51 221.39 240.76
  Q 222.06 243.02 222.73 245.05
  Q 222.90 245.56 223.43 245.67
  Q 225.00 246.00 226.17 244.98
  Q 227.39 245.28 228.71 245.48
  Q 230.19 245.71 231.29 245.19
  Q 232.60 244.57 233.61 243.44
  A 0.69 0.69 0.0 0 1 234.36 243.25
  Q 235.29 243.57 234.77 243.95
  Q 234.56 244.10 234.31 244.17
  Q 233.58 244.39 233.53 245.16
  Q 233.49 245.73 234.05 245.84
  Q 234.71 245.98 235.53 245.73
  Q 232.47 246.64 229.94 246.61
  C 224.30 246.53 218.63 245.99 212.95 246.32
  C 210.13 246.48 206.51 246.62 203.89 245.18
  Q 202.39 244.35 200.86 243.63
  Q 198.35 242.45 196.54 238.51
  C 192.64 230.03 192.39 218.55 198.66 210.96
  Q 201.21 210.17 200.70 208.73
  Q 205.16 203.90 210.52 206.00
  Q 210.99 206.18 211.47 206.05
  Q 213.30 205.54 214.41 204.38
  C 219.31 199.27 224.20 194.22 230.75 191.56
  Q 231.30 191.34 231.23 190.76
  Q 229.12 172.72 233.55 153.72
  Q 233.73 152.91 233.64 152.01
  A 0.71 0.71 0.0 0 0 232.62 151.45
  Q 228.53 153.47 224.24 155.55
  C 219.94 157.64 216.60 160.76 212.63 163.17
  Q 208.57 165.62 203.95 164.07
  Q 201.39 163.22 199.42 163.56
  C 194.16 164.45 188.77 165.74 183.58 167.15
  Q 173.13 170.00 162.72 172.96
  Q 159.10 173.98 154.29 178.78
  Q 152.56 180.51 147.14 182.15
  Q 145.48 182.09 143.83 182.79
  Q 143.32 183.01 143.87 183.08
  Q 145.62 183.31 147.49 182.87
  L 171.87 182.94
  A 1.69 1.68 -81.0 0 1 173.47 185.15
  Q 173.06 186.41 172.09 187.32
  Q 170.65 188.68 172.63 188.74
  L 176.76 188.86
  Q 179.97 188.52 180.68 189.52
  C 173.35 189.57 166.10 189.83 158.81 189.76
  Q 130.64 189.53 101.89 189.76
  Q 97.60 189.80 93.84 189.72
  Q 87.20 189.57 80.92 189.79
  A 2.97 1.99 -0.0 0 1 80.50 189.79
  Q 58.36 189.41 36.00 189.55
  Q 35.45 189.55 35.12 189.80
  Q 34.72 190.11 34.48 190.54
  L 33.81 193.09
  L 33.75 189.31
  A 0.46 0.46 0.0 0 1 34.21 188.85
  L 69.68 188.78
  A 0.56 0.56 0.0 0 0 70.11 187.85
  Q 68.72 186.22 68.05 184.17
  Q 54.79 143.47 40.94 101.45
  Q 39.92 98.35 41.68 95.61
  Q 42.06 95.01 42.64 94.58
  Q 44.87 92.93 45.72 95.57
  L 73.92 182.26
  A 1.06 1.04 -5.9 0 0 74.82 182.98
  Q 76.60 183.14 78.44 183.13
  Q 100.92 183.04 122.44 182.92
  A 3.80 3.79 -66.6 0 0 124.99 181.91
  Q 135.94 171.78 147.10 160.71
  C 150.31 157.52 154.10 154.92 158.40 153.18
  C 168.55 149.06 178.06 144.79 187.17 139.04
  A 1.50 1.47 81.7 0 0 187.81 138.16
  Q 188.81 134.22 193.28 133.13
  C 194.80 132.76 196.31 132.80 197.76 132.34
  Q 209.41 128.67 218.72 123.52
  C 223.72 120.75 228.14 117.07 233.32 114.53
  Q 234.87 113.78 233.17 113.47
  C 216.39 110.49 204.08 99.23 197.69 83.64
  Q 197.42 82.98 197.49 82.26
  Q 197.53 81.73 197.30 81.25
  C 194.36 75.29 193.91 68.58 194.29 61.83
  Q 194.32 61.27 194.04 60.79
  Q 193.72 60.24 193.69 59.60
  C 193.45 52.57 194.01 45.91 197.54 39.91
  C 202.93 30.74 210.28 24.19 219.91 19.36
  C 242.69 7.91 270.94 5.09 296.47 8.53
  Q 306.53 9.88 317.64 11.56
  Q 323.67 12.47 329.68 12.57
  Z
  M 222.25 49.20
  C 226.94 48.75 231.91 48.69 232.72 42.70
  C 233.28 38.59 230.22 34.03 225.65 34.42
  Q 223.75 34.59 221.91 34.85
  C 215.29 35.81 208.62 36.54 202.03 37.23
  C 197.64 37.69 195.36 47.79 195.00 51.24
  A 0.64 0.64 0.0 0 0 195.71 51.95
  Q 207.76 50.58 222.25 49.20
  Z
  M 194.69 61.17
  C 194.36 68.01 194.98 74.66 197.84 81.19
  A 1.48 1.47 -13.4 0 0 199.28 82.07
  C 213.58 81.11 249.78 75.45 245.64 53.79
  A 0.55 0.54 -8.8 0 0 245.03 53.35
  L 195.45 60.34
  Q 194.73 60.44 194.69 61.17
  Z
  M 270.85 85.76
  L 281.36 80.82
  A 1.74 1.74 0.0 0 0 282.20 78.50
  L 281.15 76.27
  A 7.29 3.15 -25.2 0 0 273.21 76.52
  L 272.74 76.74
  A 7.29 3.15 -25.2 0 0 267.48 82.70
  L 268.53 84.93
  A 1.74 1.74 0.0 0 0 270.85 85.76
  Z
  M 273.28 85.53
  Q 272.36 85.57 271.74 86.03
  Q 271.26 86.40 271.85 86.53
  Q 272.81 86.76 273.97 86.28
  L 282.64 83.54
  Q 283.60 83.23 283.22 82.30
  L 283.01 81.75
  Q 282.67 80.91 281.93 81.43
  Q 278.13 84.07 273.28 85.53
  Z
  M 272.78 90.85
  Q 272.46 90.76 272.69 91.12
  A 0.33 0.32 64.3 0 0 273.07 91.26
  L 284.26 87.51
  Q 284.82 87.32 284.65 86.76
  L 283.99 84.54
  A 0.39 0.39 0.0 0 0 283.41 84.32
  L 273.01 90.82
  Q 272.90 90.89 272.78 90.85
  Z
  M 277.36 86.38
  C 275.05 87.04 272.91 87.70 270.63 87.47
  Q 269.83 87.39 270.22 88.09
  L 271.21 89.92
  Q 271.50 90.44 272.02 90.14
  L 277.49 87.00
  Q 277.64 86.92 277.65 86.85
  Q 277.68 86.71 277.65 86.57
  Q 277.61 86.31 277.36 86.38
  Z
  M 286.62 91.45
  L 285.00 88.48
  A 0.24 0.24 0.0 0 0 284.68 88.38
  L 284.55 88.45
  A 12.81 1.92 -28.5 0 0 274.21 96.25
  L 274.21 96.27
  A 12.81 1.92 -28.5 0 0 286.39 91.84
  L 286.52 91.77
  A 0.24 0.24 0.0 0 0 286.62 91.45
  Z
  M 278.72 90.62
  L 278.58 90.39
  Q 278.54 90.31 278.46 90.35
  Q 275.80 91.61 273.02 92.13
  Q 272.47 92.24 272.63 92.77
  L 273.02 94.13
  Q 273.19 94.71 273.69 94.38
  L 278.60 91.12
  Q 278.89 90.93 278.72 90.62
  Z
  M 275.80 99.30
  L 276.06 100.05
  Q 276.29 100.68 276.82 100.28
  Q 281.61 96.76 286.81 93.92
  A 0.32 0.31 -22.3 0 0 286.96 93.57
  L 286.89 93.26
  A 0.30 0.30 0.0 0 0 286.45 93.07
  Q 281.33 96.01 275.35 97.44
  Q 274.55 97.64 275.10 98.25
  L 275.30 98.47
  Q 275.63 98.84 275.80 99.30
  Z
  M 288.57 97.04
  L 287.33 94.94
  A 0.19 0.19 0.0 0 0 287.07 94.88
  L 286.92 94.96
  A 12.12 0.77 -30.6 0 0 276.88 101.80
  L 277.53 102.90
  A 12.12 0.77 -30.6 0 0 288.36 97.39
  L 288.51 97.30
  A 0.19 0.19 0.0 0 0 288.57 97.04
  Z
  M 51.90 117.49
  C 50.11 112.05 47.55 103.31 44.84 96.42
  Q 44.14 94.64 43.06 96.22
  L 42.38 97.21
  Q 41.10 99.07 41.81 101.21
  L 69.03 184.26
  Q 69.37 185.32 70.24 184.62
  Q 71.19 183.85 72.33 183.41
  Q 73.25 183.06 72.95 182.11
  C 65.97 160.67 59.10 139.32 51.90 117.49
  Z
  M 289.37 100.08
  L 288.91 99.01
  A 0.26 0.26 0.0 0 0 288.57 98.88
  L 288.38 98.96
  A 11.43 0.73 -23.4 0 0 278.18 104.17
  L 278.26 104.37
  A 11.43 0.73 -23.4 0 0 289.04 100.50
  L 289.24 100.42
  A 0.26 0.26 0.0 0 0 289.37 100.08
  Z
  M 279.16 106.00
  L 279.33 106.72
  Q 279.53 107.55 280.26 107.12
  Q 284.90 104.46 290.04 103.07
  Q 290.32 103.00 290.25 102.71
  L 290.06 101.95
  Q 289.98 101.66 289.70 101.75
  L 279.73 104.97
  Q 278.97 105.22 279.16 106.00
  Z
  M 288.65 104.54
  Q 284.42 106.04 280.53 108.08
  Q 280.12 108.29 280.33 108.69
  L 281.12 110.19
  Q 281.33 110.58 281.68 110.32
  L 289.17 104.89
  Q 289.48 104.66 289.48 104.64
  Q 289.51 104.41 289.32 104.41
  Q 288.98 104.43 288.65 104.54
  Z
  M 297.9362 105.1937
  A 0.62 0.62 0.0 0 0 297.1052 104.9140
  L 275.5185 115.6297
  A 0.62 0.62 0.0 0 0 275.2389 116.4608
  L 276.3238 118.6463
  A 0.62 0.62 0.0 0 0 277.1548 118.9260
  L 298.7415 108.2103
  A 0.62 0.62 0.0 0 0 299.0211 107.3792
  L 297.9362 105.1937
  Z
  M 282.53 111.24
  L 282.53 111.24
  Q 282.58 111.32 282.67 111.28
  Q 287.03 108.92 291.27 106.65
  Q 291.58 106.49 291.48 106.16
  L 291.23 105.25
  Q 291.14 104.93 290.85 105.11
  Q 286.51 107.78 282.56 110.98
  Q 282.42 111.09 282.53 111.24
  Z
  M 275.30 114.26
  Q 274.17 113.51 272.99 113.55
  Q 272.33 113.58 272.78 114.06
  Q 273.60 114.93 274.62 115.37
  A 0.16 0.16 0.0 0 0 274.83 115.28
  Q 274.98 114.89 275.32 114.62
  A 0.23 0.22 42.2 0 0 275.30 114.26
  Z
  M 189.14 136.87
  Q 188.61 137.75 189.64 137.80
  Q 191.43 137.89 192.53 139.43
  Q 192.83 139.85 193.12 139.42
  C 194.79 136.90 199.41 136.02 202.22 135.25
  Q 206.80 134.00 212.41 131.16
  Q 226.81 123.85 241.77 114.75
  Q 242.47 114.33 241.66 114.27
  C 238.61 114.06 236.53 114.17 233.63 115.57
  Q 229.68 117.48 226.34 119.80
  Q 221.09 123.43 219.24 124.39
  Q 209.94 129.23 199.27 132.85
  C 195.86 134.01 191.30 133.26 189.14 136.87
  Z
  M 191.36 143.50
  L 192.01 143.25
  Q 192.59 143.03 192.44 142.42
  Q 192.01 140.64 190.93 139.49
  Q 190.20 138.71 189.24 139.17
  L 187.28 140.12
  Q 186.43 140.54 187.20 141.08
  L 190.51 143.39
  A 0.93 0.91 51.9 0 0 191.36 143.50
  Z
  M 189.37 144.39
  A 0.34 0.34 0.0 0 0 189.43 143.80
  L 185.70 141.30
  A 0.34 0.34 0.0 0 0 185.34 141.29
  L 182.41 143.00
  A 0.34 0.34 0.0 0 0 182.29 143.47
  L 184.02 146.30
  A 0.34 0.34 0.0 0 0 184.44 146.44
  L 189.37 144.39
  Z
  M 182.85 147.03
  A 0.35 0.35 0.0 0 0 183.00 146.51
  L 181.31 143.94
  A 0.35 0.35 0.0 0 0 180.84 143.82
  L 177.01 146.02
  A 0.35 0.35 0.0 0 0 176.86 146.45
  L 177.84 148.85
  A 0.35 0.35 0.0 0 0 178.31 149.03
  L 182.85 147.03
  Z
  M 193.58 156.67
  L 196.21 162.26
  Q 196.52 162.91 197.24 162.90
  Q 198.76 162.87 200.30 162.25
  Q 200.96 161.98 200.92 161.26
  L 200.67 156.69
  Q 198.58 149.55 193.14 144.26
  Q 192.95 144.08 192.71 144.18
  L 187.30 146.49
  Q 187.03 146.61 187.19 146.86
  L 193.58 156.67
  Z
  M 175.9611 147.0480
  A 0.52 0.52 0.0 0 0 175.2683 146.8014
  L 173.2448 147.7622
  A 0.52 0.52 0.0 0 0 172.9981 148.4550
  L 173.8989 150.3520
  A 0.52 0.52 0.0 0 0 174.5917 150.5986
  L 176.6152 149.6378
  A 0.52 0.52 0.0 0 0 176.8619 148.9450
  L 175.9611 147.0480
  Z
  M 188.34 163.89
  Q 188.66 164.90 189.68 164.69
  L 194.40 163.73
  Q 195.52 163.50 195.07 162.44
  Q 191.73 154.57 186.18 147.21
  Q 186.02 146.99 185.77 147.10
  L 180.37 149.38
  A 0.18 0.18 0.0 0 0 180.30 149.67
  Q 185.84 155.79 188.34 163.89
  Z
  M 165.11 151.54
  A 0.31 0.31 0.0 0 0 165.05 152.06
  L 167.06 153.60
  A 0.31 0.31 0.0 0 0 167.38 153.63
  L 172.79 151.19
  A 0.31 0.31 0.0 0 0 172.95 150.78
  L 172.00 148.74
  A 0.31 0.31 0.0 0 0 171.59 148.59
  L 165.11 151.54
  Z
  M 179.09 160.98
  L 180.94 166.56
  A 0.48 0.47 74.1 0 0 181.49 166.87
  L 187.04 165.58
  Q 187.47 165.48 187.33 165.06
  L 185.25 159.03
  Q 183.12 154.18 179.52 150.39
  Q 179.05 149.89 178.42 150.17
  L 176.35 151.09
  Q 175.62 151.41 175.89 152.15
  L 179.09 160.98
  Z
  M 234.76 151.84
  L 234.16 155.48
  Q 233.73 158.02 234.96 155.76
  L 237.84 150.48
  A 0.24 0.23 18.2 0 0 237.66 150.14
  Q 236.65 150.02 235.61 150.61
  Q 234.90 151.02 234.76 151.84
  Z
  M 172.54 163.38
  L 172.18 167.86
  Q 172.06 169.42 173.53 168.89
  Q 175.93 168.03 178.54 167.64
  Q 180.14 167.41 179.61 165.88
  L 178.01 161.22
  L 174.94 152.54
  Q 174.66 151.74 173.89 152.08
  L 172.74 152.58
  Q 172.09 152.87 172.12 153.57
  L 172.54 163.38
  Z
  M 165.75 154.47
  A 0.43 0.43 0.0 0 0 165.78 153.72
  L 163.63 152.37
  A 0.43 0.43 0.0 0 0 163.24 152.33
  L 158.32 154.32
  A 0.43 0.43 0.0 0 0 158.14 154.99
  L 159.91 157.12
  A 0.43 0.43 0.0 0 0 160.44 157.23
  L 165.75 154.47
  Z
  M 163.42 157.34
  Q 167.45 163.51 168.68 169.26
  A 0.92 0.91 -32.8 0 0 170.31 169.61
  Q 170.96 168.73 171.08 167.50
  Q 171.79 160.11 171.10 153.49
  Q 171.08 153.30 170.90 153.38
  L 163.57 156.80
  Q 163.18 156.98 163.42 157.34
  Z
  M 155.11 156.02
  Q 154.74 156.09 154.48 156.36
  Q 154.06 156.78 154.61 157.01
  Q 155.88 157.53 156.73 158.65
  A 0.73 0.73 0.0 0 0 157.73 158.82
  L 158.72 158.13
  Q 159.21 157.79 158.82 157.35
  L 157.28 155.56
  Q 156.94 155.17 156.43 155.27
  Q 155.97 155.36 155.63 155.73
  Q 155.42 155.96 155.11 156.02
  Z
  M 142.92 170.20
  Q 143.21 170.32 143.45 170.12
  L 155.95 159.98
  Q 156.45 159.57 155.89 159.25
  Q 155.00 158.75 154.31 157.95
  A 1.18 1.16 66.4 0 0 153.31 157.55
  C 151.56 157.71 150.71 158.86 149.52 159.97
  Q 144.72 164.41 140.25 168.77
  Q 139.98 169.03 140.33 169.17
  L 142.92 170.20
  Z
  M 167.29 168.65
  Q 166.12 163.12 162.60 158.05
  Q 162.28 157.58 161.79 157.86
  L 158.61 159.64
  Q 157.99 159.99 158.62 160.30
  Q 164.65 163.31 163.61 170.95
  A 0.33 0.33 0.0 0 0 164.03 171.31
  L 166.99 170.48
  Q 167.45 170.35 167.44 169.88
  Q 167.42 169.26 167.29 168.65
  Z
  M 161.56 172.43
  Q 162.26 172.18 162.38 171.44
  Q 163.68 163.68 157.36 160.67
  Q 156.94 160.46 156.57 160.76
  L 145.67 169.72
  Q 144.92 170.34 145.87 170.56
  C 148.98 171.26 151.92 173.96 153.59 176.58
  A 0.88 0.87 50.7 0 0 154.96 176.72
  Q 157.80 173.78 161.56 172.43
  Z
  M 125.90 183.14
  Q 127.63 183.42 128.96 182.34
  Q 134.23 178.05 141.63 171.86
  Q 142.85 170.84 141.28 170.63
  L 140.16 170.49
  A 2.87 2.86 27.1 0 0 137.79 171.25
  L 125.73 182.60
  Q 125.26 183.04 125.90 183.14
  Z
  M 146.84 175.39
  C 143.82 178.24 140.34 180.28 136.94 182.49
  Q 136.25 182.93 137.07 182.86
  Q 144.69 182.15 151.83 179.26
  Q 153.82 178.46 152.55 176.73
  Q 149.40 172.46 144.84 171.36
  A 1.53 1.51 -57.9 0 0 143.51 171.67
  L 130.18 182.72
  A 0.25 0.25 0.0 0 0 130.35 183.17
  C 132.62 183.11 134.22 182.99 136.34 181.81
  Q 141.82 178.74 146.74 175.26
  Q 147.67 174.61 146.84 175.39
  Z
  M 171.29 186.76
  Q 171.92 186.21 172.25 185.42
  Q 172.81 184.11 171.38 184.08
  Q 161.29 183.90 149.75 184.03
  Q 145.47 184.08 141.51 184.13
  Q 133.81 184.23 125.82 184.02
  Q 117.96 183.81 110.16 183.88
  Q 92.34 184.04 76.08 183.90
  Q 73.14 183.87 70.84 185.24
  A 1.13 1.13 0.0 0 0 70.79 187.15
  Q 72.19 188.08 73.88 188.10
  Q 114.00 188.52 167.36 188.25
  A 6.02 5.99 -65.6 0 0 171.29 186.76
  Z
  M 214.13 207.87
  Q 216.59 209.69 218.30 212.13
  A 0.60 0.59 54.4 0 0 219.14 212.27
  Q 225.91 207.25 233.89 203.63
  A 0.61 0.61 0.0 0 0 234.21 202.87
  Q 232.52 198.09 231.64 192.95
  A 0.54 0.54 0.0 0 0 230.90 192.54
  C 224.99 194.93 219.49 200.24 215.32 204.91
  Q 214.58 205.74 213.49 206.11
  A 0.79 0.78 -29.1 0 0 213.13 207.35
  Q 213.54 207.85 214.13 207.87
  Z
  M 215.69 237.92
  Q 215.78 239.00 216.50 239.78
  Q 216.90 240.21 216.79 239.63
  L 216.40 237.56
  Q 214.60 229.67 216.56 222.21
  Q 217.31 219.35 217.40 216.90
  Q 217.44 215.66 216.63 216.60
  L 213.83 219.83
  A 1.68 1.67 -22.7 0 0 213.43 220.80
  Q 212.76 229.50 215.69 237.92
  Z
  M 213.08 241.64
  Q 213.20 241.62 213.17 241.50
  Q 211.07 233.11 211.78 224.32
  Q 211.80 224.03 211.64 223.80
  Q 211.28 223.29 211.11 223.89
  Q 208.50 232.84 212.66 241.61
  Q 212.71 241.72 212.82 241.69
  L 213.08 241.64
  Z
  M 219.14 245.68
  L 220.71 245.41
  A 0.27 0.27 0.0 0 0 220.93 245.09
  L 220.90 244.92
  A 18.95 1.04 80.3 0 0 216.69 226.41
  L 216.63 226.42
  A 18.95 1.04 80.3 0 0 218.79 245.28
  L 218.82 245.46
  A 0.27 0.27 0.0 0 0 219.14 245.68
  Z
  M 214.34 237.23
  Q 212.49 230.14 213.46 237.40
  Q 213.90 240.65 215.03 244.03
  A 0.83 0.82 -1.3 0 0 215.58 244.55
  L 216.23 244.73
  Q 217.01 244.95 216.69 244.20
  Q 215.34 241.03 214.34 237.23
  Z"
/>
<path fill="#4e4f52" d="
  M 322.30 13.12
  L 330.99 13.56
  Q 332.66 13.64 331.51 14.86
  Q 321.12 25.86 311.25 37.02
  Q 308.54 40.09 308.93 42.67
  Q 284.16 48.06 258.50 51.22
  Q 253.57 51.83 248.18 52.15
  Q 242.66 52.48 237.89 53.19
  Q 216.88 56.32 195.39 59.23
  Q 194.28 59.38 194.33 58.27
  L 194.50 54.07
  Q 194.55 53.01 195.60 52.91
  Q 215.34 51.00 228.01 49.32
  Q 231.93 48.80 233.35 44.43
  Q 235.28 38.48 230.16 34.69
  C 228.00 33.08 226.11 33.44 223.51 33.72
  Q 212.92 34.85 202.65 36.08
  A 0.64 0.64 0.0 0 1 202.05 35.08
  Q 205.11 30.75 209.30 27.36
  Q 220.48 18.30 237.52 13.41
  Q 249.68 9.93 258.89 9.14
  C 272.43 7.99 286.71 7.81 299.87 9.86
  Q 315.05 12.23 322.30 13.12
  Z"
/>
<path fill="#2a221b" d="
  M 316.81 40.91
  Q 315.11 42.33 313.03 39.73
  Q 312.72 39.35 312.36 39.67
  L 308.93 42.67
  Q 308.54 40.09 311.25 37.02
  Q 321.12 25.86 331.51 14.86
  Q 332.66 13.64 330.99 13.56
  L 322.30 13.12
  L 329.68 12.57
  L 334.61 11.83
  A 0.21 0.21 0.0 0 1 334.82 12.16
  Q 325.41 26.51 314.34 39.04
  Q 314.03 39.39 314.35 39.74
  Q 314.92 40.38 316.81 40.91
  Z"
/>
<path fill="#deb231" d="
  M 222.25 49.20
  Q 207.76 50.58 195.71 51.95
  A 0.64 0.64 0.0 0 1 195.00 51.24
  C 195.36 47.79 197.64 37.69 202.03 37.23
  C 208.62 36.54 215.29 35.81 221.91 34.85
  Q 223.75 34.59 225.65 34.42
  C 230.22 34.03 233.28 38.59 232.72 42.70
  C 231.91 48.69 226.94 48.75 222.25 49.20
  Z"
/>
<path fill="#4e4f52" d="
  M 308.59 44.64
  Q 301.74 68.85 286.94 89.69
  L 281.49 74.89
  Q 281.33 74.44 280.85 74.40
  Q 272.55 73.83 266.95 80.22
  Q 265.96 81.36 266.61 82.68
  Q 271.13 91.87 275.59 101.37
  Q 272.41 103.81 269.00 105.95
  C 266.92 107.26 264.10 108.28 261.72 109.81
  Q 253.43 110.67 250.73 111.50
  Q 244.71 113.36 241.15 113.32
  Q 236.57 113.26 231.45 112.16
  C 215.80 108.77 205.41 98.31 198.83 84.27
  A 0.72 0.72 0.0 0 1 199.43 83.25
  Q 208.52 82.61 217.79 80.45
  C 228.78 77.88 242.56 73.27 246.72 61.69
  Q 246.96 61.02 247.64 60.82
  Q 277.67 51.90 308.59 44.64
  Z"
/>
<path fill="#34302e" d="
  M 308.59 44.64
  Q 310.43 45.21 310.53 47.00
  Q 310.64 48.87 311.52 51.25
  Q 311.69 51.71 312.16 51.84
  Q 313.75 52.25 314.02 54.28
  Q 313.52 53.99 313.18 53.94
  Q 312.60 53.87 312.65 54.45
  Q 315.03 81.11 297.27 100.84
  Q 294.72 101.89 292.51 104.06
  A 0.41 0.41 0.0 0 1 291.83 103.88
  Q 291.01 101.21 289.80 98.75
  Q 289.29 97.73 289.15 96.57
  Q 289.00 95.23 288.02 94.22
  Q 287.65 93.84 287.56 93.31
  L 286.94 89.69
  Q 301.74 68.85 308.59 44.64
  Z"
/>
<path fill="#b5b6b4" fill-opacity="0.996" d="
  M 324.28 51.55
  Q 324.26 51.65 323.94 52.01
  Q 323.04 51.49 322.57 50.57
  Q 322.28 50.01 322.89 50.16
  Q 323.73 50.37 324.28 51.55
  Z"
/>
<path fill="#e2c6ac" d="
  M 197.84 81.19
  C 194.98 74.66 194.36 68.01 194.69 61.17
  Q 194.73 60.44 195.45 60.34
  L 245.03 53.35
  A 0.55 0.54 -8.8 0 1 245.64 53.79
  C 249.78 75.45 213.58 81.11 199.28 82.07
  A 1.48 1.47 -13.4 0 1 197.84 81.19
  Z
  M 205.45 65.26
  Q 212.86 62.73 219.41 60.71
  Q 221.44 60.08 219.37 59.58
  Q 214.99 58.53 210.46 60.67
  Q 203.06 64.17 198.16 67.50
  Q 193.59 70.61 198.61 68.30
  C 200.88 67.25 203.05 66.08 205.45 65.26
  Z
  M 204.4282 79.0900
  A 6.25 3.78 90.2 0 0 208.2300 72.8532
  A 6.25 3.78 90.2 0 0 204.4718 66.5900
  A 6.25 3.78 90.2 0 0 200.6700 72.8268
  A 6.25 3.78 90.2 0 0 204.4282 79.0900
  Z"
/>
<path fill="#0b0a0a" d="
  M 205.45 65.26
  C 203.05 66.08 200.88 67.25 198.61 68.30
  Q 193.59 70.61 198.16 67.50
  Q 203.06 64.17 210.46 60.67
  Q 214.99 58.53 219.37 59.58
  Q 221.44 60.08 219.41 60.71
  Q 212.86 62.73 205.45 65.26
  Z"
/>
<ellipse fill="#2a221b" cx="0.00" cy="0.00" transform="translate(204.45,72.84) rotate(90.2)" rx="6.25" ry="3.78"/>
<path fill="#4e4f52" d="
  M 270.85 85.76
  A 1.74 1.74 0.0 0 1 268.53 84.93
  L 267.48 82.70
  A 7.29 3.15 -25.2 0 1 272.74 76.74
  L 273.21 76.52
  A 7.29 3.15 -25.2 0 1 281.15 76.27
  L 282.20 78.50
  A 1.74 1.74 0.0 0 1 281.36 80.82
  L 270.85 85.76
  Z"
/>
<path fill="#fefefe" d="
  M 273.97 86.28
  Q 273.30 86.40 273.28 85.53
  Q 278.13 84.07 281.93 81.43
  Q 282.67 80.91 283.01 81.75
  L 283.22 82.30
  Q 283.60 83.23 282.64 83.54
  L 273.97 86.28
  Z"
/>
<path fill="#fefefe" d="
  M 273.01 90.82
  L 283.41 84.32
  A 0.39 0.39 0.0 0 1 283.99 84.54
  L 284.65 86.76
  Q 284.82 87.32 284.26 87.51
  L 273.07 91.26
  A 0.33 0.32 64.3 0 1 272.69 91.12
  Q 272.46 90.76 272.78 90.85
  Q 272.90 90.89 273.01 90.82
  Z
  M 280.67 87.15
  Q 280.19 87.57 280.83 87.59
  Q 281.93 87.62 282.54 86.82
  Q 282.96 86.26 282.27 86.38
  Q 281.41 86.53 280.67 87.15
  Z"
/>
<path fill="#b5b6b4" fill-opacity="0.996" d="
  M 273.28 85.53
  Q 273.30 86.40 273.97 86.28
  Q 272.81 86.76 271.85 86.53
  Q 271.26 86.40 271.74 86.03
  Q 272.36 85.57 273.28 85.53
  Z"
/>
<path fill="#b5b6b4" fill-opacity="0.996" d="
  M 280.67 87.15
  Q 281.41 86.53 282.27 86.38
  Q 282.96 86.26 282.54 86.82
  Q 281.93 87.62 280.83 87.59
  Q 280.19 87.57 280.67 87.15
  Z"
/>
<path fill="#fefefe" d="
  M 270.63 87.47
  C 272.91 87.70 275.05 87.04 277.36 86.38
  Q 277.61 86.31 277.65 86.57
  Q 277.68 86.71 277.65 86.85
  Q 277.64 86.92 277.49 87.00
  L 272.02 90.14
  Q 271.50 90.44 271.21 89.92
  L 270.22 88.09
  Q 269.83 87.39 270.63 87.47
  Z"
/>
<path fill="#fefefe" d="
  M 286.62 91.45
  A 0.24 0.24 0.0 0 1 286.52 91.77
  L 286.39 91.84
  A 12.81 1.92 -28.5 0 1 274.21 96.27
  L 274.21 96.25
  A 12.81 1.92 -28.5 0 1 284.55 88.45
  L 284.68 88.38
  A 0.24 0.24 0.0 0 1 285.00 88.48
  L 286.62 91.45
  Z"
/>
<path fill="#fefefe" d="
  M 278.60 91.12
  L 273.69 94.38
  Q 273.19 94.71 273.02 94.13
  L 272.63 92.77
  Q 272.47 92.24 273.02 92.13
  Q 275.80 91.61 278.46 90.35
  Q 278.54 90.31 278.58 90.39
  L 278.72 90.62
  Q 278.89 90.93 278.60 91.12
  Z"
/>
<path fill="#fefefe" d="
  M 275.30 98.47
  L 275.10 98.25
  Q 274.55 97.64 275.35 97.44
  Q 281.33 96.01 286.45 93.07
  A 0.30 0.30 0.0 0 1 286.89 93.26
  L 286.96 93.57
  A 0.32 0.31 -22.3 0 1 286.81 93.92
  Q 281.61 96.76 276.82 100.28
  Q 276.29 100.68 276.06 100.05
  L 275.80 99.30
  Q 275.63 98.84 275.30 98.47
  Z"
/>
<path fill="#fefefe" d="
  M 288.57 97.04
  A 0.19 0.19 0.0 0 1 288.51 97.30
  L 288.36 97.39
  A 12.12 0.77 -30.6 0 1 277.53 102.90
  L 276.88 101.80
  A 12.12 0.77 -30.6 0 1 286.92 94.96
  L 287.07 94.88
  A 0.19 0.19 0.0 0 1 287.33 94.94
  L 288.57 97.04
  Z"
/>
<path fill="#b5b6b4" fill-opacity="0.996" d="
  M 51.90 117.49
  C 59.10 139.32 65.97 160.67 72.95 182.11
  Q 73.25 183.06 72.33 183.41
  Q 71.19 183.85 70.24 184.62
  Q 69.37 185.32 69.03 184.26
  L 41.81 101.21
  Q 41.10 99.07 42.38 97.21
  L 43.06 96.22
  Q 44.14 94.64 44.84 96.42
  C 47.55 103.31 50.11 112.05 51.90 117.49
  Z"
/>
<path fill="#fefefe" d="
  M 289.37 100.08
  A 0.26 0.26 0.0 0 1 289.24 100.42
  L 289.04 100.50
  A 11.43 0.73 -23.4 0 1 278.26 104.37
  L 278.18 104.17
  A 11.43 0.73 -23.4 0 1 288.38 98.96
  L 288.57 98.88
  A 0.26 0.26 0.0 0 1 288.91 99.01
  L 289.37 100.08
  Z"
/>
<path fill="#34302e" d="
  M 275.59 101.37
  L 280.78 111.46
  A 0.67 0.66 -29.1 0 1 280.53 112.33
  Q 277.71 114.06 274.62 112.97
  C 273.25 112.49 271.86 112.89 270.69 112.37
  Q 266.43 110.48 261.72 109.81
  C 264.10 108.28 266.92 107.26 269.00 105.95
  Q 272.41 103.81 275.59 101.37
  Z"
/>
<path fill="#fefefe" d="
  M 279.73 104.97
  L 289.70 101.75
  Q 289.98 101.66 290.06 101.95
  L 290.25 102.71
  Q 290.32 103.00 290.04 103.07
  Q 284.90 104.46 280.26 107.12
  Q 279.53 107.55 279.33 106.72
  L 279.16 106.00
  Q 278.97 105.22 279.73 104.97
  Z"
/>
<path fill="#fefefe" d="
  M 295.95 102.67
  Q 296.29 103.44 296.86 103.73
  Q 295.23 105.07 293.34 105.73
  Q 292.83 105.91 293.08 105.43
  Q 293.97 103.75 295.95 102.67
  Z"
/>
<path fill="#fefefe" d="
  M 288.65 104.54
  Q 288.98 104.43 289.32 104.41
  Q 289.51 104.41 289.48 104.64
  Q 289.48 104.66 289.17 104.89
  L 281.68 110.32
  Q 281.33 110.58 281.12 110.19
  L 280.33 108.69
  Q 280.12 108.29 280.53 108.08
  Q 284.42 106.04 288.65 104.54
  Z"
/>
<rect fill="#4e4f52" x="-12.67" y="-1.84" transform="translate(287.13,111.92) rotate(-26.4)" width="25.34" height="3.68" rx="0.62"/>
<path fill="#fefefe" d="
  M 282.56 110.98
  Q 286.51 107.78 290.85 105.11
  Q 291.14 104.93 291.23 105.25
  L 291.48 106.16
  Q 291.58 106.49 291.27 106.65
  Q 287.03 108.92 282.67 111.28
  Q 282.58 111.32 282.53 111.24
  L 282.53 111.24
  Q 282.42 111.09 282.56 110.98
  Z"
/>
<path fill="#2a221b" d="
  M 295.43 110.88
  Q 295.48 111.94 295.82 112.42
  Q 306.50 127.57 309.19 145.88
  C 309.44 147.59 310.00 148.89 310.65 150.40
  Q 330.54 196.41 350.36 242.22
  C 350.96 243.59 351.99 247.85 349.30 247.99
  C 345.23 248.20 340.08 242.22 338.73 239.24
  Q 326.72 212.72 311.15 177.61
  Q 311.06 177.42 310.79 177.50
  L 310.92 177.04
  Q 311.03 176.65 310.85 176.29
  L 304.30 163.17
  Q 303.12 159.06 301.28 155.74
  C 298.79 151.25 296.68 146.55 294.25 142.65
  Q 291.48 138.19 288.58 133.78
  L 289.23 134.08
  Q 289.63 134.27 289.59 133.83
  Q 289.54 133.34 290.10 133.04
  L 291.27 134.98
  A 0.26 0.26 0.0 0 0 291.62 135.07
  L 291.90 134.89
  A 0.29 0.29 0.0 0 0 292.00 134.53
  L 285.82 120.82
  Q 286.20 120.77 286.36 119.76
  Q 290.69 128.62 294.43 137.68
  Q 297.77 145.80 301.33 153.50
  Q 301.94 154.81 302.75 155.77
  Q 303.07 156.16 303.15 156.67
  Q 303.43 158.49 304.34 159.79
  C 305.55 161.52 306.11 163.58 307.23 165.36
  Q 307.35 165.53 307.37 165.73
  Q 307.39 165.99 307.36 166.26
  A 1.39 1.36 34.0 0 0 307.53 167.09
  L 311.56 174.36
  Q 311.86 174.33 312.11 174.91
  Q 320.55 194.21 339.42 236.58
  Q 341.80 241.91 344.13 244.25
  Q 345.79 246.61 348.99 246.88
  A 1.29 1.28 83.5 0 0 350.32 245.20
  Q 348.86 240.71 347.00 236.42
  C 345.82 233.70 344.30 231.09 343.21 228.33
  Q 340.98 222.76 340.96 222.71
  Q 317.21 168.31 293.66 113.84
  Q 294.81 112.71 294.87 111.31
  Q 294.89 111.00 295.18 110.90
  Q 295.30 110.86 295.43 110.88
  Z"
/>
<path fill="#4e4f52" d="
  M 288.58 133.78
  Q 291.48 138.19 294.25 142.65
  C 296.68 146.55 298.79 151.25 301.28 155.74
  Q 303.12 159.06 304.30 163.17
  Q 302.64 171.11 301.13 174.38
  Q 296.06 185.30 285.61 192.59
  Q 283.69 193.14 281.15 193.39
  C 264.91 195.03 248.85 193.90 232.88 191.68
  Q 232.34 191.61 232.27 191.07
  Q 231.12 182.42 231.63 174.38
  Q 231.75 172.44 232.64 170.57
  Q 238.54 158.22 244.15 149.47
  A 1.93 1.93 0.0 0 1 245.63 148.59
  C 254.74 147.89 262.08 145.90 268.31 138.90
  Q 268.61 138.57 268.26 138.28
  L 268.00 138.06
  A 0.36 0.36 0.0 0 0 267.50 138.11
  Q 260.78 146.05 248.91 147.17
  C 242.62 147.76 235.41 148.79 229.55 151.79
  C 225.77 153.72 221.73 155.42 218.31 157.97
  C 213.84 161.31 210.91 164.49 204.61 163.37
  Q 203.19 163.11 202.21 162.20
  A 1.15 1.11 25.4 0 1 201.86 161.26
  C 202.66 153.61 198.81 148.67 194.08 143.29
  A 2.59 2.58 -42.3 0 1 194.26 139.69
  C 195.29 138.73 197.31 137.64 198.69 137.38
  C 206.96 135.77 214.53 131.16 222.28 127.26
  Q 229.66 123.55 237.73 118.36
  Q 247.25 112.24 258.52 111.30
  Q 267.37 110.57 273.76 116.01
  C 274.79 116.89 275.31 118.54 276.03 119.70
  Q 276.41 120.31 276.96 119.86
  Q 277.32 119.58 277.76 119.48
  Q 278.49 119.33 278.92 119.94
  L 288.58 133.78
  Z"
/>
<path fill="#4e4f52" d="
  M 293.66 113.84
  Q 317.21 168.31 340.96 222.71
  Q 340.98 222.76 343.21 228.33
  C 344.30 231.09 345.82 233.70 347.00 236.42
  Q 348.86 240.71 350.32 245.20
  A 1.29 1.28 83.5 0 1 348.99 246.88
  Q 345.79 246.61 344.13 244.25
  L 287.09 114.95
  L 292.85 112.07
  Q 293.28 111.85 293.37 112.32
  L 293.66 113.84
  Z"
/>
<path fill="#4e4f52" d="
  M 275.30 114.26
  A 0.23 0.22 42.2 0 1 275.32 114.62
  Q 274.98 114.89 274.83 115.28
  A 0.16 0.16 0.0 0 1 274.62 115.37
  Q 273.60 114.93 272.78 114.06
  Q 272.33 113.58 272.99 113.55
  Q 274.17 113.51 275.30 114.26
  Z"
/>
<path fill="#4e4f52" d="
  M 189.14 136.87
  C 191.30 133.26 195.86 134.01 199.27 132.85
  Q 209.94 129.23 219.24 124.39
  Q 221.09 123.43 226.34 119.80
  Q 229.68 117.48 233.63 115.57
  C 236.53 114.17 238.61 114.06 241.66 114.27
  Q 242.47 114.33 241.77 114.75
  Q 226.81 123.85 212.41 131.16
  Q 206.80 134.00 202.22 135.25
  C 199.41 136.02 194.79 136.90 193.12 139.42
  Q 192.83 139.85 192.53 139.43
  Q 191.43 137.89 189.64 137.80
  Q 188.61 137.75 189.14 136.87
  Z"
/>
<path fill="#b5b6b4" fill-opacity="0.996" d="
  M 287.09 114.95
  L 344.13 244.25
  Q 341.80 241.91 339.42 236.58
  Q 320.55 194.21 312.11 174.91
  Q 311.86 174.33 311.56 174.36
  Q 311.91 174.11 311.69 173.60
  Q 299.40 145.38 286.98 117.21
  C 286.69 116.56 286.13 116.21 285.72 115.62
  L 287.09 114.95
  Z"
/>
<path fill="#4e4f52" d="
  M 285.72 115.62
  C 286.13 116.21 286.69 116.56 286.98 117.21
  Q 299.40 145.38 311.69 173.60
  Q 311.91 174.11 311.56 174.36
  L 307.53 167.09
  A 1.39 1.36 34.0 0 1 307.36 166.26
  Q 307.39 165.99 307.37 165.73
  Q 307.35 165.53 307.23 165.36
  C 306.11 163.58 305.55 161.52 304.34 159.79
  Q 303.43 158.49 303.15 156.67
  Q 303.07 156.16 302.75 155.77
  Q 301.94 154.81 301.33 153.50
  Q 297.77 145.80 294.43 137.68
  Q 290.69 128.62 286.36 119.76
  L 284.90 116.82
  Q 284.67 116.34 285.05 115.97
  Q 285.29 115.73 285.72 115.62
  Z"
/>
<path fill="#4e4f52" d="
  M 285.82 120.82
  L 292.00 134.53
  A 0.29 0.29 0.0 0 1 291.90 134.89
  L 291.62 135.07
  A 0.26 0.26 0.0 0 1 291.27 134.98
  L 290.10 133.04
  L 280.74 118.35
  Q 280.61 118.15 280.83 118.04
  L 283.74 116.50
  Q 283.98 116.37 284.09 116.63
  L 285.82 120.82
  Z"
/>
<path fill="#fefefe" d="
  M 191.36 143.50
  A 0.93 0.91 51.9 0 1 190.51 143.39
  L 187.20 141.08
  Q 186.43 140.54 187.28 140.12
  L 189.24 139.17
  Q 190.20 138.71 190.93 139.49
  Q 192.01 140.64 192.44 142.42
  Q 192.59 143.03 192.01 143.25
  L 191.36 143.50
  Z"
/>
<path fill="#fefefe" d="
  M 189.37 144.39
  L 184.44 146.44
  A 0.34 0.34 0.0 0 1 184.02 146.30
  L 182.29 143.47
  A 0.34 0.34 0.0 0 1 182.41 143.00
  L 185.34 141.29
  A 0.34 0.34 0.0 0 1 185.70 141.30
  L 189.43 143.80
  A 0.34 0.34 0.0 0 1 189.37 144.39
  Z"
/>
<path fill="#fefefe" d="
  M 182.85 147.03
  L 178.31 149.03
  A 0.35 0.35 0.0 0 1 177.84 148.85
  L 176.86 146.45
  A 0.35 0.35 0.0 0 1 177.01 146.02
  L 180.84 143.82
  A 0.35 0.35 0.0 0 1 181.31 143.94
  L 183.00 146.51
  A 0.35 0.35 0.0 0 1 182.85 147.03
  Z"
/>
<path fill="#fefefe" d="
  M 200.67 156.69
  Q 200.76 158.09 200.25 158.29
  A 0.64 0.64 0.0 0 1 199.39 157.56
  Q 199.63 156.43 199.49 156.19
  A 2.26 2.25 -28.8 0 0 196.57 155.35
  Q 195.08 156.08 193.58 156.67
  L 187.19 146.86
  Q 187.03 146.61 187.30 146.49
  L 192.71 144.18
  Q 192.95 144.08 193.14 144.26
  Q 198.58 149.55 200.67 156.69
  Z"
/>
<rect fill="#fefefe" x="-1.64" y="-1.57" transform="translate(174.93,148.70) rotate(-25.4)" width="3.28" height="3.14" rx="0.52"/>
<path fill="#fefefe" d="
  M 188.34 163.89
  Q 185.84 155.79 180.30 149.67
  A 0.18 0.18 0.0 0 1 180.37 149.38
  L 185.77 147.10
  Q 186.02 146.99 186.18 147.21
  Q 191.73 154.57 195.07 162.44
  Q 195.52 163.50 194.40 163.73
  L 189.68 164.69
  Q 188.66 164.90 188.34 163.89
  Z
  M 187.63 159.37
  Q 188.24 161.04 189.22 162.62
  Q 189.49 163.05 189.97 163.19
  Q 191.84 163.70 192.72 162.31
  Q 193.32 161.34 192.84 160.23
  Q 192.30 158.99 191.81 157.77
  A 1.13 1.11 71.7 0 0 190.50 157.10
  L 187.81 157.78
  A 0.86 0.85 85.6 0 0 187.18 158.52
  Q 187.10 159.30 187.63 159.37
  Z"
/>
<path fill="#fefefe" d="
  M 165.11 151.54
  L 171.59 148.59
  A 0.31 0.31 0.0 0 1 172.00 148.74
  L 172.95 150.78
  A 0.31 0.31 0.0 0 1 172.79 151.19
  L 167.38 153.63
  A 0.31 0.31 0.0 0 1 167.06 153.60
  L 165.05 152.06
  A 0.31 0.31 0.0 0 1 165.11 151.54
  Z"
/>
<path fill="#fefefe" d="
  M 185.25 159.03
  Q 181.94 159.19 179.09 160.98
  L 175.89 152.15
  Q 175.62 151.41 176.35 151.09
  L 178.42 150.17
  Q 179.05 149.89 179.52 150.39
  Q 183.12 154.18 185.25 159.03
  Z"
/>
<path fill="#4e4f52" d="
  M 234.76 151.84
  Q 234.90 151.02 235.61 150.61
  Q 236.65 150.02 237.66 150.14
  A 0.24 0.23 18.2 0 1 237.84 150.48
  L 234.96 155.76
  Q 233.73 158.02 234.16 155.48
  L 234.76 151.84
  Z"
/>
<path fill="#fefefe" d="
  M 178.01 161.22
  Q 175.38 163.34 172.54 163.38
  L 172.12 153.57
  Q 172.09 152.87 172.74 152.58
  L 173.89 152.08
  Q 174.66 151.74 174.94 152.54
  L 178.01 161.22
  Z"
/>
<path fill="#fefefe" d="
  M 165.75 154.47
  L 160.44 157.23
  A 0.43 0.43 0.0 0 1 159.91 157.12
  L 158.14 154.99
  A 0.43 0.43 0.0 0 1 158.32 154.32
  L 163.24 152.33
  A 0.43 0.43 0.0 0 1 163.63 152.37
  L 165.78 153.72
  A 0.43 0.43 0.0 0 1 165.75 154.47
  Z"
/>
<path fill="#fefefe" d="
  M 163.42 157.34
  Q 163.18 156.98 163.57 156.80
  L 170.90 153.38
  Q 171.08 153.30 171.10 153.49
  Q 171.79 160.11 171.08 167.50
  Q 170.96 168.73 170.31 169.61
  A 0.92 0.91 -32.8 0 1 168.68 169.26
  Q 167.45 163.51 163.42 157.34
  Z"
/>
<path fill="#fefefe" d="
  M 155.63 155.73
  Q 155.97 155.36 156.43 155.27
  Q 156.94 155.17 157.28 155.56
  L 158.82 157.35
  Q 159.21 157.79 158.72 158.13
  L 157.73 158.82
  A 0.73 0.73 0.0 0 1 156.73 158.65
  Q 155.88 157.53 154.61 157.01
  Q 154.06 156.78 154.48 156.36
  Q 154.74 156.09 155.11 156.02
  Q 155.42 155.96 155.63 155.73
  Z"
/>
<path fill="#b5b6b4" fill-opacity="0.996" d="
  M 200.67 156.69
  L 200.92 161.26
  Q 200.96 161.98 200.30 162.25
  Q 198.76 162.87 197.24 162.90
  Q 196.52 162.91 196.21 162.26
  L 193.58 156.67
  Q 195.08 156.08 196.57 155.35
  A 2.26 2.25 -28.8 0 1 199.49 156.19
  Q 199.63 156.43 199.39 157.56
  A 0.64 0.64 0.0 0 0 200.25 158.29
  Q 200.76 158.09 200.67 156.69
  Z"
/>
<path fill="#b5b6b4" fill-opacity="0.996" d="
  M 187.63 159.37
  Q 187.10 159.30 187.18 158.52
  A 0.86 0.85 85.6 0 1 187.81 157.78
  L 190.50 157.10
  A 1.13 1.11 71.7 0 1 191.81 157.77
  Q 192.30 158.99 192.84 160.23
  Q 193.32 161.34 192.72 162.31
  Q 191.84 163.70 189.97 163.19
  Q 189.49 163.05 189.22 162.62
  Q 188.24 161.04 187.63 159.37
  Z"
/>
<path fill="#4e4f52" d="
  M 140.25 168.77
  Q 144.72 164.41 149.52 159.97
  C 150.71 158.86 151.56 157.71 153.31 157.55
  A 1.18 1.16 66.4 0 1 154.31 157.95
  Q 155.00 158.75 155.89 159.25
  Q 156.45 159.57 155.95 159.98
  L 143.45 170.12
  Q 143.21 170.32 142.92 170.20
  L 140.33 169.17
  Q 139.98 169.03 140.25 168.77
  Z"
/>
<path fill="#fefefe" d="
  M 167.29 168.65
  Q 167.42 169.26 167.44 169.88
  Q 167.45 170.35 166.99 170.48
  L 164.03 171.31
  A 0.33 0.33 0.0 0 1 163.61 170.95
  Q 164.65 163.31 158.62 160.30
  Q 157.99 159.99 158.61 159.64
  L 161.79 157.86
  Q 162.28 157.58 162.60 158.05
  Q 166.12 163.12 167.29 168.65
  Z"
/>
<path fill="#b5b6b4" fill-opacity="0.996" d="
  M 185.25 159.03
  L 187.33 165.06
  Q 187.47 165.48 187.04 165.58
  L 181.49 166.87
  A 0.48 0.47 74.1 0 1 180.94 166.56
  L 179.09 160.98
  Q 181.94 159.19 185.25 159.03
  Z"
/>
<path fill="#4e4f52" d="
  M 161.56 172.43
  Q 157.80 173.78 154.96 176.72
  A 0.88 0.87 50.7 0 1 153.59 176.58
  C 151.92 173.96 148.98 171.26 145.87 170.56
  Q 144.92 170.34 145.67 169.72
  L 156.57 160.76
  Q 156.94 160.46 157.36 160.67
  Q 163.68 163.68 162.38 171.44
  Q 162.26 172.18 161.56 172.43
  Z"
/>
<path fill="#b5b6b4" fill-opacity="0.996" d="
  M 178.01 161.22
  L 179.61 165.88
  Q 180.14 167.41 178.54 167.64
  Q 175.93 168.03 173.53 168.89
  Q 172.06 169.42 172.18 167.86
  L 172.54 163.38
  Q 175.38 163.34 178.01 161.22
  Z"
/>
<path fill="#34302e" d="
  M 304.30 163.17
  L 310.85 176.29
  Q 311.03 176.65 310.92 177.04
  L 310.79 177.50
  L 309.83 185.72
  Q 298.33 191.31 285.61 192.59
  Q 296.06 185.30 301.13 174.38
  Q 302.64 171.11 304.30 163.17
  Z"
/>
<path fill="#e2c6ac" d="
  M 125.90 183.14
  Q 125.26 183.04 125.73 182.60
  L 137.79 171.25
  A 2.87 2.86 27.1 0 1 140.16 170.49
  L 141.28 170.63
  Q 142.85 170.84 141.63 171.86
  Q 134.23 178.05 128.96 182.34
  Q 127.63 183.42 125.90 183.14
  Z"
/>
<path fill="#e2c6ac" d="
  M 146.74 175.26
  Q 141.82 178.74 136.34 181.81
  C 134.22 182.99 132.62 183.11 130.35 183.17
  A 0.25 0.25 0.0 0 1 130.18 182.72
  L 143.51 171.67
  A 1.53 1.51 -57.9 0 1 144.84 171.36
  Q 149.40 172.46 152.55 176.73
  Q 153.82 178.46 151.83 179.26
  Q 144.69 182.15 137.07 182.86
  Q 136.25 182.93 136.94 182.49
  C 140.34 180.28 143.82 178.24 146.84 175.39
  Q 147.67 174.61 146.74 175.26
  Z"
/>
<path fill="#b5b6b4" fill-opacity="0.996" d="
  M 147.14 182.15
  Q 147.40 182.53 147.49 182.87
  Q 145.62 183.31 143.87 183.08
  Q 143.32 183.01 143.83 182.79
  Q 145.48 182.09 147.14 182.15
  Z"
/>
<path fill="#b5b6b4" fill-opacity="0.996" d="
  M 167.36 188.25
  Q 114.00 188.52 73.88 188.10
  Q 72.19 188.08 70.79 187.15
  A 1.13 1.13 0.0 0 1 70.84 185.24
  Q 73.14 183.87 76.08 183.90
  Q 92.34 184.04 110.16 183.88
  Q 117.96 183.81 125.82 184.02
  Q 133.81 184.23 141.51 184.13
  Q 145.47 184.08 149.75 184.03
  Q 161.29 183.90 171.38 184.08
  Q 172.81 184.11 172.25 185.42
  Q 171.92 186.21 171.29 186.76
  A 6.02 5.99 -65.6 0 1 167.36 188.25
  Z"
/>
<path fill="#2a221b" d="
  M 176.76 188.86
  L 199.79 188.88
  A 0.80 0.79 0.0 0 1 200.59 189.67
  L 200.70 208.73
  Q 201.21 210.17 198.66 210.96
  Q 199.30 210.47 199.39 210.06
  Q 199.50 209.56 198.99 209.55
  L 181.74 209.54
  A 0.57 0.56 2.2 0 0 181.17 210.06
  C 180.36 221.11 182.18 230.84 186.17 241.06
  Q 187.68 244.95 189.08 248.93
  Q 178.86 231.45 180.23 210.89
  A 1.22 1.22 0.0 0 0 179.01 209.59
  L 162.67 209.57
  A 0.67 0.66 -4.7 0 0 162.01 210.34
  L 167.70 245.37
  Q 166.25 242.80 161.01 243.62
  Q 159.75 243.82 159.54 242.55
  L 154.27 210.22
  A 0.81 0.80 -4.6 0 0 153.47 209.55
  L 85.22 209.56
  Q 84.73 209.56 84.66 210.03
  L 79.30 242.83
  A 0.90 0.88 4.2 0 1 78.43 243.57
  L 72.99 243.60
  A 0.79 0.79 0.0 0 0 72.22 244.26
  L 70.40 254.66
  Q 70.30 255.23 69.72 255.23
  L 45.98 255.25
  A 0.28 0.28 0.0 0 1 45.75 254.82
  Q 58.81 235.04 57.90 210.44
  A 0.93 0.92 -1.0 0 0 56.97 209.55
  L 34.43 209.58
  Q 33.76 209.58 33.76 208.91
  L 33.81 193.09
  L 34.48 190.54
  L 34.64 206.67
  A 1.08 1.08 0.0 0 0 35.72 207.74
  Q 53.33 207.66 71.66 206.92
  Q 79.71 206.59 88.20 206.99
  Q 97.21 207.41 104.34 207.34
  Q 124.62 207.13 142.49 207.30
  Q 150.08 207.37 158.91 207.01
  Q 167.27 206.66 175.70 206.96
  C 186.84 207.37 193.64 200.70 199.24 191.89
  Q 199.62 191.31 199.62 190.63
  Q 199.62 189.52 198.50 189.52
  L 180.68 189.52
  Q 179.97 188.52 176.76 188.86
  Z
  M 69.69 253.24
  L 76.78 210.51
  Q 76.93 209.62 76.02 209.61
  L 59.55 209.54
  A 0.91 0.90 88.5 0 0 58.64 210.51
  Q 60.15 234.02 47.51 253.56
  A 0.56 0.56 0.0 0 0 48.00 254.42
  Q 57.49 254.05 68.11 254.52
  A 1.53 1.53 0.0 0 0 69.69 253.24
  Z"
/>
<path fill="#674624" d="
  M 180.68 189.52
  L 198.50 189.52
  Q 199.62 189.52 199.62 190.63
  Q 199.62 191.31 199.24 191.89
  C 193.64 200.70 186.84 207.37 175.70 206.96
  Q 167.27 206.66 158.91 207.01
  Q 150.08 207.37 142.49 207.30
  Q 124.62 207.13 104.34 207.34
  Q 97.21 207.41 88.20 206.99
  Q 79.71 206.59 71.66 206.92
  Q 53.33 207.66 35.72 207.74
  A 1.08 1.08 0.0 0 1 34.64 206.67
  L 34.48 190.54
  Q 34.72 190.11 35.12 189.80
  Q 35.45 189.55 36.00 189.55
  Q 58.36 189.41 80.50 189.79
  A 2.97 1.99 -0.0 0 0 80.92 189.79
  Q 87.20 189.57 93.84 189.72
  Q 97.60 189.80 101.89 189.76
  Q 130.64 189.53 158.81 189.76
  C 166.10 189.83 173.35 189.57 180.68 189.52
  Z"
/>
<path fill="#4e4f52" d="
  M 214.13 207.87
  Q 213.54 207.85 213.13 207.35
  A 0.79 0.78 -29.1 0 1 213.49 206.11
  Q 214.58 205.74 215.32 204.91
  C 219.49 200.24 224.99 194.93 230.90 192.54
  A 0.54 0.54 0.0 0 1 231.64 192.95
  Q 232.52 198.09 234.21 202.87
  A 0.61 0.61 0.0 0 1 233.89 203.63
  Q 225.91 207.25 219.14 212.27
  A 0.60 0.59 54.4 0 1 218.30 212.13
  Q 216.59 209.69 214.13 207.87
  Z"
/>
<path fill="#34302e" d="
  M 309.24 196.63
  Q 314.07 205.05 316.29 214.73
  Q 316.37 215.06 316.58 215.42
  Q 316.82 215.85 316.87 216.13
  Q 317.08 220.53 318.78 224.46
  L 318.84 230.71
  A 1.22 1.22 0.0 0 1 317.51 231.94
  Q 315.63 231.77 315.42 233.72
  C 314.72 240.48 311.27 247.01 305.06 250.49
  C 297.19 254.90 290.29 255.82 281.69 255.18
  Q 264.44 253.89 248.99 247.87
  C 244.82 246.24 240.03 246.01 235.53 245.73
  Q 234.71 245.98 234.05 245.84
  Q 233.49 245.73 233.53 245.16
  Q 233.58 244.39 234.31 244.17
  Q 234.56 244.10 234.77 243.95
  Q 235.29 243.57 234.36 243.25
  A 0.69 0.69 0.0 0 0 233.61 243.44
  Q 232.60 244.57 231.29 245.19
  Q 230.19 245.71 228.71 245.48
  Q 227.39 245.28 226.17 244.98
  Q 225.83 244.54 225.12 244.15
  Q 225.59 244.14 225.70 244.04
  A 0.63 0.62 49.1 0 0 225.76 243.18
  Q 224.32 241.43 222.69 239.79
  Q 221.32 238.41 220.65 236.27
  Q 220.00 234.17 219.56 231.81
  Q 231.01 238.55 242.26 241.22
  C 259.06 245.22 278.32 245.78 294.82 241.16
  Q 304.30 238.51 309.57 232.81
  Q 311.95 230.24 311.23 227.13
  Q 311.47 227.16 311.61 227.10
  Q 311.96 226.94 311.70 226.66
  L 311.07 225.98
  Q 311.20 225.89 311.36 225.86
  Q 311.61 225.83 311.54 225.59
  Q 309.95 219.86 307.93 216.28
  Q 303.11 207.74 294.80 201.05
  Q 302.20 200.27 309.24 196.63
  Z"
/>
<path fill="#4e4f52" d="
  M 294.80 201.05
  Q 303.11 207.74 307.93 216.28
  Q 309.95 219.86 311.54 225.59
  Q 311.61 225.83 311.36 225.86
  Q 311.20 225.89 311.07 225.98
  Q 309.20 224.59 308.50 224.42
  Q 302.26 222.88 297.15 219.79
  Q 290.49 215.76 282.51 210.16
  C 278.92 207.63 274.86 205.72 270.81 203.95
  Q 270.11 203.64 270.88 203.61
  Q 282.46 203.18 294.80 201.05
  Z"
/>
<path fill="#4e4f52" d="
  M 311.23 227.13
  Q 311.95 230.24 309.57 232.81
  Q 304.30 238.51 294.82 241.16
  C 278.32 245.78 259.06 245.22 242.26 241.22
  Q 231.01 238.55 219.56 231.81
  Q 218.93 229.30 218.37 226.48
  C 217.67 222.96 218.47 219.92 218.64 216.50
  Q 218.66 216.00 218.53 215.51
  C 218.33 214.75 218.50 213.98 219.16 213.50
  Q 226.20 208.34 234.59 204.62
  Q 236.68 203.69 238.87 203.76
  Q 251.31 204.17 264.64 203.85
  C 269.10 203.74 275.21 207.15 278.79 209.42
  C 286.77 214.48 294.51 220.21 303.30 224.24
  Q 304.18 224.65 307.31 225.45
  Q 309.30 225.96 311.23 227.13
  Z"
/>
<path fill="#674624" d="
  M 76.78 210.51
  L 69.69 253.24
  A 1.53 1.53 0.0 0 1 68.11 254.52
  Q 57.49 254.05 48.00 254.42
  A 0.56 0.56 0.0 0 1 47.51 253.56
  Q 60.15 234.02 58.64 210.51
  A 0.91 0.90 88.5 0 1 59.55 209.54
  L 76.02 209.61
  Q 76.93 209.62 76.78 210.51
  Z"
/>
<path fill="#674624" d="
  M 189.08 248.93
  L 191.76 253.50
  A 0.52 0.52 0.0 0 1 191.31 254.28
  L 170.41 254.15
  A 1.96 1.96 0.0 0 1 168.47 252.40
  L 167.70 245.37
  L 162.01 210.34
  A 0.67 0.66 -4.7 0 1 162.67 209.57
  L 179.01 209.59
  A 1.22 1.22 0.0 0 1 180.23 210.89
  Q 178.86 231.45 189.08 248.93
  Z"
/>
<path fill="#fefefe" d="
  M 216.40 237.56
  Q 215.99 237.91 215.69 237.92
  Q 212.76 229.50 213.43 220.80
  A 1.68 1.67 -22.7 0 1 213.83 219.83
  L 216.63 216.60
  Q 217.44 215.66 217.40 216.90
  Q 217.31 219.35 216.56 222.21
  Q 214.60 229.67 216.40 237.56
  Z"
/>
<path fill="#b5b6b4" fill-opacity="0.996" d="
  M 316.87 216.13
  Q 319.60 220.28 318.78 224.46
  Q 317.08 220.53 316.87 216.13
  Z"
/>
<path fill="#b5b6b4" fill-opacity="0.996" d="
  M 212.66 241.61
  Q 208.50 232.84 211.11 223.89
  Q 211.28 223.29 211.64 223.80
  Q 211.80 224.03 211.78 224.32
  Q 211.07 233.11 213.17 241.50
  Q 213.20 241.62 213.08 241.64
  L 212.82 241.69
  Q 212.71 241.72 212.66 241.61
  Z"
/>
<path fill="#fefefe" d="
  M 219.14 245.68
  A 0.27 0.27 0.0 0 1 218.82 245.46
  L 218.79 245.28
  A 18.95 1.04 80.3 0 1 216.63 226.42
  L 216.69 226.41
  A 18.95 1.04 80.3 0 1 220.90 244.92
  L 220.93 245.09
  A 0.27 0.27 0.0 0 1 220.71 245.41
  L 219.14 245.68
  Z"
/>
<path fill="#fefefe" d="
  M 214.34 237.23
  Q 215.34 241.03 216.69 244.20
  Q 217.01 244.95 216.23 244.73
  L 215.58 244.55
  A 0.83 0.82 -1.3 0 1 215.03 244.03
  Q 213.90 240.65 213.46 237.40
  Q 212.49 230.14 214.34 237.23
  Z"
/>
<path fill="#b5b6b4" fill-opacity="0.996" d="
  M 216.40 237.56
  L 216.79 239.63
  Q 216.90 240.21 216.50 239.78
  Q 215.78 239.00 215.69 237.92
  Q 215.99 237.91 216.40 237.56
  Z"
/>
<path fill="#fefefe" d="
  M 225.12 244.15
  Q 225.83 244.54 226.17 244.98
  Q 225.00 246.00 223.43 245.67
  Q 222.90 245.56 222.73 245.05
  Q 222.06 243.02 221.39 240.76
  Q 221.32 240.51 221.51 240.33
  Q 221.55 240.30 221.60 240.28
  Q 221.75 240.23 221.83 240.36
  Q 223.28 242.58 225.12 244.15
  Z"
/>
</svg>
