<svg width="34" height="32" viewBox="0 0 34 32" fill="none" xmlns="http://www.w3.org/2000/svg">
<path d="M26.952 26L22.2726 24.3254C18.0185 26.1394 7.32602 27.8175 4.40532 18.0463C2.27821 10.9301 8.94307 5.34868 14.6152 4.2324C19.2947 3.31146 26.3346 4.96165 27.8029 12.186C28.6537 16.3721 26.5266 19.7208 25.6758 20.558L26.952 26Z" fill="#FFDAA5" stroke="#FFDAA5" stroke-width="3"/>
<path d="M23.4765 26.2776L28.9764 28.2778L27.4765 21.7776C28.4764 20.7776 30.9764 16.7778 29.9765 11.7778C28.2507 3.14864 19.9765 1.17758 14.4765 2.27759C7.80979 3.61092 -0.0236938 10.2776 2.47639 18.7776C5.90921 30.4487 18.4765 28.4442 23.4765 26.2776Z" stroke="#FF5708" stroke-width="3"/>
</svg>
